G04 #@! TF.GenerationSoftware,KiCad,Pcbnew,6.99.0-a9ca49a600~144~ubuntu20.04.1*
G04 #@! TF.CreationDate,2022-03-01T02:01:25-05:00*
G04 #@! TF.ProjectId,pa-jtag,70612d6a-7461-4672-9e6b-696361645f70,rev?*
G04 #@! TF.SameCoordinates,Original*
G04 #@! TF.FileFunction,Soldermask,Top*
G04 #@! TF.FilePolarity,Negative*
%FSLAX46Y46*%
G04 Gerber Fmt 4.6, Leading zero omitted, Abs format (unit mm)*
G04 Created by KiCad (PCBNEW 6.99.0-a9ca49a600~144~ubuntu20.04.1) date 2022-03-01 02:01:25*
%MOMM*%
%LPD*%
G01*
G04 APERTURE LIST*
G04 Aperture macros list*
%AMRoundRect*
0 Rectangle with rounded corners*
0 $1 Rounding radius*
0 $2 $3 $4 $5 $6 $7 $8 $9 X,Y pos of 4 corners*
0 Add a 4 corners polygon primitive as box body*
4,1,4,$2,$3,$4,$5,$6,$7,$8,$9,$2,$3,0*
0 Add four circle primitives for the rounded corners*
1,1,$1+$1,$2,$3*
1,1,$1+$1,$4,$5*
1,1,$1+$1,$6,$7*
1,1,$1+$1,$8,$9*
0 Add four rect primitives between the rounded corners*
20,1,$1+$1,$2,$3,$4,$5,0*
20,1,$1+$1,$4,$5,$6,$7,0*
20,1,$1+$1,$6,$7,$8,$9,0*
20,1,$1+$1,$8,$9,$2,$3,0*%
G04 Aperture macros list end*
%ADD10RoundRect,0.276000X0.225000X0.250000X-0.225000X0.250000X-0.225000X-0.250000X0.225000X-0.250000X0*%
%ADD11RoundRect,0.051000X0.850000X-0.850000X0.850000X0.850000X-0.850000X0.850000X-0.850000X-0.850000X0*%
%ADD12O,1.802000X1.802000*%
%ADD13RoundRect,0.251000X0.275000X-0.200000X0.275000X0.200000X-0.275000X0.200000X-0.275000X-0.200000X0*%
%ADD14RoundRect,0.276000X-0.225000X-0.250000X0.225000X-0.250000X0.225000X0.250000X-0.225000X0.250000X0*%
%ADD15RoundRect,0.251000X-0.200000X-0.275000X0.200000X-0.275000X0.200000X0.275000X-0.200000X0.275000X0*%
%ADD16RoundRect,0.051000X-0.525000X-0.750000X0.525000X-0.750000X0.525000X0.750000X-0.525000X0.750000X0*%
%ADD17O,1.152000X1.602000*%
%ADD18RoundRect,0.051000X-0.650000X-0.850000X0.650000X-0.850000X0.650000X0.850000X-0.650000X0.850000X0*%
%ADD19RoundRect,0.051000X-0.875000X-0.225000X0.875000X-0.225000X0.875000X0.225000X-0.875000X0.225000X0*%
%ADD20RoundRect,0.251000X0.200000X0.275000X-0.200000X0.275000X-0.200000X-0.275000X0.200000X-0.275000X0*%
%ADD21RoundRect,0.269750X0.218750X0.381250X-0.218750X0.381250X-0.218750X-0.381250X0.218750X-0.381250X0*%
%ADD22RoundRect,0.201000X-0.587500X-0.150000X0.587500X-0.150000X0.587500X0.150000X-0.587500X0.150000X0*%
%ADD23C,1.002000*%
%ADD24RoundRect,0.051000X1.250000X-0.250000X1.250000X0.250000X-1.250000X0.250000X-1.250000X-0.250000X0*%
%ADD25RoundRect,0.051000X1.250000X-1.000000X1.250000X1.000000X-1.250000X1.000000X-1.250000X-1.000000X0*%
%ADD26RoundRect,0.051000X-0.850000X-0.850000X0.850000X-0.850000X0.850000X0.850000X-0.850000X0.850000X0*%
%ADD27RoundRect,0.301000X-0.450000X-0.425000X0.450000X-0.425000X0.450000X0.425000X-0.450000X0.425000X0*%
%ADD28RoundRect,0.051000X-0.750000X0.525000X-0.750000X-0.525000X0.750000X-0.525000X0.750000X0.525000X0*%
%ADD29O,1.602000X1.152000*%
%ADD30C,4.102000*%
%ADD31RoundRect,0.051000X-0.800000X0.800000X-0.800000X-0.800000X0.800000X-0.800000X0.800000X0.800000X0*%
%ADD32C,1.702000*%
%ADD33RoundRect,0.269750X-0.218750X-0.256250X0.218750X-0.256250X0.218750X0.256250X-0.218750X0.256250X0*%
G04 APERTURE END LIST*
D10*
X188925000Y-83300000D03*
X187375000Y-83300000D03*
D11*
X146625000Y-71175000D03*
D12*
X146625000Y-68635000D03*
X149165000Y-71175000D03*
X149165000Y-68635000D03*
X151705000Y-71175000D03*
X151705000Y-68635000D03*
X154245000Y-71175000D03*
X154245000Y-68635000D03*
X156785000Y-71175000D03*
X156785000Y-68635000D03*
D13*
X148900000Y-95325000D03*
X148900000Y-93675000D03*
D14*
X169925000Y-84950000D03*
X171475000Y-84950000D03*
D15*
X129075000Y-75200000D03*
X130725000Y-75200000D03*
D16*
X141730000Y-93460000D03*
D17*
X143000000Y-93460000D03*
X144270000Y-93460000D03*
D15*
X129075000Y-85700000D03*
X130725000Y-85700000D03*
X129075000Y-83600000D03*
X130725000Y-83600000D03*
D18*
X129150000Y-90500000D03*
X132650000Y-90500000D03*
D13*
X139600000Y-95325000D03*
X139600000Y-93675000D03*
D15*
X129075000Y-79400000D03*
X130725000Y-79400000D03*
D19*
X158500000Y-77775000D03*
X158500000Y-78425000D03*
X158500000Y-79075000D03*
X158500000Y-79725000D03*
X158500000Y-80375000D03*
X158500000Y-81025000D03*
X158500000Y-81675000D03*
X158500000Y-82325000D03*
X158500000Y-82975000D03*
X158500000Y-83625000D03*
X158500000Y-84275000D03*
X158500000Y-84925000D03*
X158500000Y-85575000D03*
X158500000Y-86225000D03*
X165700000Y-86225000D03*
X165700000Y-85575000D03*
X165700000Y-84925000D03*
X165700000Y-84275000D03*
X165700000Y-83625000D03*
X165700000Y-82975000D03*
X165700000Y-82325000D03*
X165700000Y-81675000D03*
X165700000Y-81025000D03*
X165700000Y-80375000D03*
X165700000Y-79725000D03*
X165700000Y-79075000D03*
X165700000Y-78425000D03*
X165700000Y-77775000D03*
D20*
X144625000Y-96300000D03*
X142975000Y-96300000D03*
D21*
X188962500Y-85300000D03*
X186837500Y-85300000D03*
D22*
X136062500Y-79400000D03*
X136062500Y-81300000D03*
X137937500Y-80350000D03*
D16*
X151030000Y-93460000D03*
D17*
X152300000Y-93460000D03*
X153570000Y-93460000D03*
D14*
X170075000Y-73700000D03*
X171625000Y-73700000D03*
D23*
X198475000Y-79800000D03*
X198475000Y-84200000D03*
D24*
X195875000Y-83600000D03*
X195875000Y-82800000D03*
X195875000Y-82000000D03*
X195875000Y-81200000D03*
D25*
X195875000Y-77600000D03*
X201375000Y-86400000D03*
X201375000Y-77600000D03*
X195875000Y-86400000D03*
D24*
X195875000Y-80400000D03*
D20*
X189375000Y-88200000D03*
X187725000Y-88200000D03*
D26*
X194125000Y-90975000D03*
D12*
X194125000Y-93515000D03*
X194125000Y-96055000D03*
D26*
X194125000Y-68475000D03*
D12*
X194125000Y-71015000D03*
X194125000Y-73555000D03*
D20*
X153925000Y-96300000D03*
X152275000Y-96300000D03*
D15*
X187325000Y-81350000D03*
X188975000Y-81350000D03*
X129075000Y-77300000D03*
X130725000Y-77300000D03*
X187275000Y-79500000D03*
X188925000Y-79500000D03*
X129075000Y-81500000D03*
X130725000Y-81500000D03*
D27*
X170200000Y-82800000D03*
X172900000Y-82800000D03*
D22*
X136012500Y-75200000D03*
X136012500Y-77100000D03*
X137887500Y-76150000D03*
D28*
X171300000Y-76750000D03*
D29*
X171300000Y-78020000D03*
X171300000Y-79290000D03*
D22*
X136062500Y-83600000D03*
X136062500Y-85500000D03*
X137937500Y-84550000D03*
D30*
X123110331Y-69710000D03*
X123110331Y-94710000D03*
D31*
X124530331Y-87750000D03*
D32*
X124530331Y-84980000D03*
X124530331Y-82210000D03*
X124530331Y-79440000D03*
X124530331Y-76670000D03*
X121690331Y-86365000D03*
X121690331Y-83595000D03*
X121690331Y-80825000D03*
X121690331Y-78055000D03*
D33*
X191562500Y-88250000D03*
X193137500Y-88250000D03*
G36*
X151607919Y-92833759D02*
G01*
X151627595Y-92900771D01*
X151679938Y-92946126D01*
X151748491Y-92955983D01*
X151811648Y-92927140D01*
X151826563Y-92910630D01*
X151828466Y-92910015D01*
X151829950Y-92911356D01*
X151829634Y-92913189D01*
X151802915Y-92948010D01*
X151745576Y-93086442D01*
X151726000Y-93235132D01*
X151726000Y-93684868D01*
X151745576Y-93833558D01*
X151802915Y-93971990D01*
X151833875Y-94012338D01*
X151834136Y-94014321D01*
X151832549Y-94015539D01*
X151831026Y-94015107D01*
X151778579Y-93972428D01*
X151709751Y-93964697D01*
X151647672Y-93995402D01*
X151611962Y-94054939D01*
X151607984Y-94086014D01*
X151606772Y-94087605D01*
X151604788Y-94087351D01*
X151604000Y-94085760D01*
X151604000Y-92834322D01*
X151605000Y-92832590D01*
X151607000Y-92832590D01*
X151607919Y-92833759D01*
G37*
G36*
X142307919Y-92833759D02*
G01*
X142327595Y-92900771D01*
X142379938Y-92946126D01*
X142448491Y-92955983D01*
X142511648Y-92927140D01*
X142526563Y-92910630D01*
X142528466Y-92910015D01*
X142529950Y-92911356D01*
X142529634Y-92913189D01*
X142502915Y-92948010D01*
X142445576Y-93086442D01*
X142426000Y-93235132D01*
X142426000Y-93684868D01*
X142445576Y-93833558D01*
X142502915Y-93971990D01*
X142533875Y-94012338D01*
X142534136Y-94014321D01*
X142532549Y-94015539D01*
X142531026Y-94015107D01*
X142478579Y-93972428D01*
X142409751Y-93964697D01*
X142347672Y-93995402D01*
X142311962Y-94054939D01*
X142307984Y-94086014D01*
X142306772Y-94087605D01*
X142304788Y-94087351D01*
X142304000Y-94085760D01*
X142304000Y-92834322D01*
X142305000Y-92832590D01*
X142307000Y-92832590D01*
X142307919Y-92833759D01*
G37*
G36*
X153068076Y-92958004D02*
G01*
X153068110Y-92959611D01*
X153015576Y-93086442D01*
X152996000Y-93235132D01*
X152996000Y-93684868D01*
X153015576Y-93833558D01*
X153066941Y-93957565D01*
X153066680Y-93959548D01*
X153064832Y-93960313D01*
X153063445Y-93959463D01*
X153058707Y-93952570D01*
X153058484Y-93952144D01*
X153049930Y-93929506D01*
X153008008Y-93874002D01*
X152943013Y-93850075D01*
X152875403Y-93865087D01*
X152826474Y-93914436D01*
X152820149Y-93928094D01*
X152808689Y-93957487D01*
X152808462Y-93957910D01*
X152805374Y-93962304D01*
X152803560Y-93963146D01*
X152801924Y-93961996D01*
X152801890Y-93960389D01*
X152854424Y-93833558D01*
X152874000Y-93684868D01*
X152874000Y-93235132D01*
X152854424Y-93086442D01*
X152803059Y-92962435D01*
X152803320Y-92960452D01*
X152805168Y-92959687D01*
X152806555Y-92960537D01*
X152811293Y-92967430D01*
X152811516Y-92967856D01*
X152820070Y-92990494D01*
X152861992Y-93045998D01*
X152926987Y-93069925D01*
X152994597Y-93054913D01*
X153043526Y-93005564D01*
X153049851Y-92991906D01*
X153061311Y-92962513D01*
X153061538Y-92962090D01*
X153064626Y-92957696D01*
X153066440Y-92956854D01*
X153068076Y-92958004D01*
G37*
G36*
X143768076Y-92958004D02*
G01*
X143768110Y-92959611D01*
X143715576Y-93086442D01*
X143696000Y-93235132D01*
X143696000Y-93684868D01*
X143715576Y-93833558D01*
X143766941Y-93957565D01*
X143766680Y-93959548D01*
X143764832Y-93960313D01*
X143763445Y-93959463D01*
X143758707Y-93952570D01*
X143758484Y-93952144D01*
X143749930Y-93929506D01*
X143708008Y-93874002D01*
X143643013Y-93850075D01*
X143575403Y-93865087D01*
X143526474Y-93914436D01*
X143520149Y-93928094D01*
X143508689Y-93957487D01*
X143508462Y-93957910D01*
X143505374Y-93962304D01*
X143503560Y-93963146D01*
X143501924Y-93961996D01*
X143501890Y-93960389D01*
X143554424Y-93833558D01*
X143574000Y-93684868D01*
X143574000Y-93235132D01*
X143554424Y-93086442D01*
X143503059Y-92962435D01*
X143503320Y-92960452D01*
X143505168Y-92959687D01*
X143506555Y-92960537D01*
X143511293Y-92967430D01*
X143511516Y-92967856D01*
X143520070Y-92990494D01*
X143561992Y-93045998D01*
X143626987Y-93069925D01*
X143694597Y-93054913D01*
X143743526Y-93005564D01*
X143749851Y-92991906D01*
X143761311Y-92962513D01*
X143761538Y-92962090D01*
X143764626Y-92957696D01*
X143766440Y-92956854D01*
X143768076Y-92958004D01*
G37*
G36*
X157591075Y-85835084D02*
G01*
X157606263Y-85845233D01*
X157625199Y-85849000D01*
X159374801Y-85849000D01*
X159393738Y-85845233D01*
X159408773Y-85835186D01*
X159410768Y-85835055D01*
X159411880Y-85836718D01*
X159411793Y-85837447D01*
X159392898Y-85897788D01*
X159411955Y-85962690D01*
X159411483Y-85964633D01*
X159409564Y-85965197D01*
X159408925Y-85964916D01*
X159393737Y-85954767D01*
X159374801Y-85951000D01*
X157625199Y-85951000D01*
X157606262Y-85954767D01*
X157591227Y-85964814D01*
X157589232Y-85964945D01*
X157588120Y-85963282D01*
X157588207Y-85962553D01*
X157607102Y-85902212D01*
X157588045Y-85837310D01*
X157588517Y-85835367D01*
X157590436Y-85834803D01*
X157591075Y-85835084D01*
G37*
G36*
X164791075Y-85835084D02*
G01*
X164806263Y-85845233D01*
X164825199Y-85849000D01*
X166574801Y-85849000D01*
X166593738Y-85845233D01*
X166608773Y-85835186D01*
X166610768Y-85835055D01*
X166611880Y-85836718D01*
X166611793Y-85837447D01*
X166592898Y-85897788D01*
X166611955Y-85962690D01*
X166611483Y-85964633D01*
X166609564Y-85965197D01*
X166608925Y-85964916D01*
X166593737Y-85954767D01*
X166574801Y-85951000D01*
X164825199Y-85951000D01*
X164806262Y-85954767D01*
X164791227Y-85964814D01*
X164789232Y-85964945D01*
X164788120Y-85963282D01*
X164788207Y-85962553D01*
X164807102Y-85902212D01*
X164788045Y-85837310D01*
X164788517Y-85835367D01*
X164790436Y-85834803D01*
X164791075Y-85835084D01*
G37*
G36*
X164791075Y-85185084D02*
G01*
X164806263Y-85195233D01*
X164825199Y-85199000D01*
X166574801Y-85199000D01*
X166593738Y-85195233D01*
X166608773Y-85185186D01*
X166610768Y-85185055D01*
X166611880Y-85186718D01*
X166611793Y-85187447D01*
X166592898Y-85247788D01*
X166611955Y-85312690D01*
X166611483Y-85314633D01*
X166609564Y-85315197D01*
X166608925Y-85314916D01*
X166593737Y-85304767D01*
X166574801Y-85301000D01*
X164825199Y-85301000D01*
X164806262Y-85304767D01*
X164791227Y-85314814D01*
X164789232Y-85314945D01*
X164788120Y-85313282D01*
X164788207Y-85312553D01*
X164807102Y-85252212D01*
X164788045Y-85187310D01*
X164788517Y-85185367D01*
X164790436Y-85184803D01*
X164791075Y-85185084D01*
G37*
G36*
X157591075Y-85185084D02*
G01*
X157606263Y-85195233D01*
X157625199Y-85199000D01*
X159374801Y-85199000D01*
X159393738Y-85195233D01*
X159408773Y-85185186D01*
X159410768Y-85185055D01*
X159411880Y-85186718D01*
X159411793Y-85187447D01*
X159392898Y-85247788D01*
X159411955Y-85312690D01*
X159411483Y-85314633D01*
X159409564Y-85315197D01*
X159408925Y-85314916D01*
X159393737Y-85304767D01*
X159374801Y-85301000D01*
X157625199Y-85301000D01*
X157606262Y-85304767D01*
X157591227Y-85314814D01*
X157589232Y-85314945D01*
X157588120Y-85313282D01*
X157588207Y-85312553D01*
X157607102Y-85252212D01*
X157588045Y-85187310D01*
X157588517Y-85185367D01*
X157590436Y-85184803D01*
X157591075Y-85185084D01*
G37*
G36*
X164791075Y-84535084D02*
G01*
X164806263Y-84545233D01*
X164825199Y-84549000D01*
X166574801Y-84549000D01*
X166593738Y-84545233D01*
X166608773Y-84535186D01*
X166610768Y-84535055D01*
X166611880Y-84536718D01*
X166611793Y-84537447D01*
X166592898Y-84597788D01*
X166611955Y-84662690D01*
X166611483Y-84664633D01*
X166609564Y-84665197D01*
X166608925Y-84664916D01*
X166593737Y-84654767D01*
X166574801Y-84651000D01*
X164825199Y-84651000D01*
X164806262Y-84654767D01*
X164791227Y-84664814D01*
X164789232Y-84664945D01*
X164788120Y-84663282D01*
X164788207Y-84662553D01*
X164807102Y-84602212D01*
X164788045Y-84537310D01*
X164788517Y-84535367D01*
X164790436Y-84534803D01*
X164791075Y-84535084D01*
G37*
G36*
X157591075Y-84535084D02*
G01*
X157606263Y-84545233D01*
X157625199Y-84549000D01*
X159374801Y-84549000D01*
X159393738Y-84545233D01*
X159408773Y-84535186D01*
X159410768Y-84535055D01*
X159411880Y-84536718D01*
X159411793Y-84537447D01*
X159392898Y-84597788D01*
X159411955Y-84662690D01*
X159411483Y-84664633D01*
X159409564Y-84665197D01*
X159408925Y-84664916D01*
X159393737Y-84654767D01*
X159374801Y-84651000D01*
X157625199Y-84651000D01*
X157606262Y-84654767D01*
X157591227Y-84664814D01*
X157589232Y-84664945D01*
X157588120Y-84663282D01*
X157588207Y-84662553D01*
X157607102Y-84602212D01*
X157588045Y-84537310D01*
X157588517Y-84535367D01*
X157590436Y-84534803D01*
X157591075Y-84535084D01*
G37*
G36*
X164791075Y-83885084D02*
G01*
X164806263Y-83895233D01*
X164825199Y-83899000D01*
X166574801Y-83899000D01*
X166593738Y-83895233D01*
X166608773Y-83885186D01*
X166610768Y-83885055D01*
X166611880Y-83886718D01*
X166611793Y-83887447D01*
X166592898Y-83947788D01*
X166611955Y-84012690D01*
X166611483Y-84014633D01*
X166609564Y-84015197D01*
X166608925Y-84014916D01*
X166593737Y-84004767D01*
X166574801Y-84001000D01*
X164825199Y-84001000D01*
X164806262Y-84004767D01*
X164791227Y-84014814D01*
X164789232Y-84014945D01*
X164788120Y-84013282D01*
X164788207Y-84012553D01*
X164807102Y-83952212D01*
X164788045Y-83887310D01*
X164788517Y-83885367D01*
X164790436Y-83884803D01*
X164791075Y-83885084D01*
G37*
G36*
X157591075Y-83885084D02*
G01*
X157606263Y-83895233D01*
X157625199Y-83899000D01*
X159374801Y-83899000D01*
X159393738Y-83895233D01*
X159408773Y-83885186D01*
X159410768Y-83885055D01*
X159411880Y-83886718D01*
X159411793Y-83887447D01*
X159392898Y-83947788D01*
X159411955Y-84012690D01*
X159411483Y-84014633D01*
X159409564Y-84015197D01*
X159408925Y-84014916D01*
X159393737Y-84004767D01*
X159374801Y-84001000D01*
X157625199Y-84001000D01*
X157606262Y-84004767D01*
X157591227Y-84014814D01*
X157589232Y-84014945D01*
X157588120Y-84013282D01*
X157588207Y-84012553D01*
X157607102Y-83952212D01*
X157588045Y-83887310D01*
X157588517Y-83885367D01*
X157590436Y-83884803D01*
X157591075Y-83885084D01*
G37*
G36*
X164791075Y-83235084D02*
G01*
X164806263Y-83245233D01*
X164825199Y-83249000D01*
X166574801Y-83249000D01*
X166593738Y-83245233D01*
X166608773Y-83235186D01*
X166610768Y-83235055D01*
X166611880Y-83236718D01*
X166611793Y-83237447D01*
X166592898Y-83297788D01*
X166611955Y-83362690D01*
X166611483Y-83364633D01*
X166609564Y-83365197D01*
X166608925Y-83364916D01*
X166593737Y-83354767D01*
X166574801Y-83351000D01*
X164825199Y-83351000D01*
X164806262Y-83354767D01*
X164791227Y-83364814D01*
X164789232Y-83364945D01*
X164788120Y-83363282D01*
X164788207Y-83362553D01*
X164807102Y-83302212D01*
X164788045Y-83237310D01*
X164788517Y-83235367D01*
X164790436Y-83234803D01*
X164791075Y-83235084D01*
G37*
G36*
X157591075Y-83235084D02*
G01*
X157606263Y-83245233D01*
X157625199Y-83249000D01*
X159374801Y-83249000D01*
X159393738Y-83245233D01*
X159408773Y-83235186D01*
X159410768Y-83235055D01*
X159411880Y-83236718D01*
X159411793Y-83237447D01*
X159392898Y-83297788D01*
X159411955Y-83362690D01*
X159411483Y-83364633D01*
X159409564Y-83365197D01*
X159408925Y-83364916D01*
X159393737Y-83354767D01*
X159374801Y-83351000D01*
X157625199Y-83351000D01*
X157606262Y-83354767D01*
X157591227Y-83364814D01*
X157589232Y-83364945D01*
X157588120Y-83363282D01*
X157588207Y-83362553D01*
X157607102Y-83302212D01*
X157588045Y-83237310D01*
X157588517Y-83235367D01*
X157590436Y-83234803D01*
X157591075Y-83235084D01*
G37*
G36*
X197141668Y-83096665D02*
G01*
X197142058Y-83098627D01*
X197141699Y-83099267D01*
X197098511Y-83150946D01*
X197089880Y-83219661D01*
X197119844Y-83282291D01*
X197140682Y-83300348D01*
X197141336Y-83302238D01*
X197140026Y-83303749D01*
X197138982Y-83303821D01*
X197124801Y-83301000D01*
X194625199Y-83301000D01*
X194610226Y-83303978D01*
X194608332Y-83303335D01*
X194607942Y-83301373D01*
X194608301Y-83300733D01*
X194651489Y-83249054D01*
X194660120Y-83180339D01*
X194630156Y-83117709D01*
X194609318Y-83099652D01*
X194608664Y-83097762D01*
X194609974Y-83096251D01*
X194611018Y-83096179D01*
X194625199Y-83099000D01*
X197124801Y-83099000D01*
X197139774Y-83096022D01*
X197141668Y-83096665D01*
G37*
G36*
X157591075Y-82585084D02*
G01*
X157606263Y-82595233D01*
X157625199Y-82599000D01*
X159374801Y-82599000D01*
X159393738Y-82595233D01*
X159408773Y-82585186D01*
X159410768Y-82585055D01*
X159411880Y-82586718D01*
X159411793Y-82587447D01*
X159392898Y-82647788D01*
X159411955Y-82712690D01*
X159411483Y-82714633D01*
X159409564Y-82715197D01*
X159408925Y-82714916D01*
X159393737Y-82704767D01*
X159374801Y-82701000D01*
X157625199Y-82701000D01*
X157606262Y-82704767D01*
X157591227Y-82714814D01*
X157589232Y-82714945D01*
X157588120Y-82713282D01*
X157588207Y-82712553D01*
X157607102Y-82652212D01*
X157588045Y-82587310D01*
X157588517Y-82585367D01*
X157590436Y-82584803D01*
X157591075Y-82585084D01*
G37*
G36*
X164791075Y-82585084D02*
G01*
X164806263Y-82595233D01*
X164825199Y-82599000D01*
X166574801Y-82599000D01*
X166593738Y-82595233D01*
X166608773Y-82585186D01*
X166610768Y-82585055D01*
X166611880Y-82586718D01*
X166611793Y-82587447D01*
X166592898Y-82647788D01*
X166611955Y-82712690D01*
X166611483Y-82714633D01*
X166609564Y-82715197D01*
X166608925Y-82714916D01*
X166593737Y-82704767D01*
X166574801Y-82701000D01*
X164825199Y-82701000D01*
X164806262Y-82704767D01*
X164791227Y-82714814D01*
X164789232Y-82714945D01*
X164788120Y-82713282D01*
X164788207Y-82712553D01*
X164807102Y-82652212D01*
X164788045Y-82587310D01*
X164788517Y-82585367D01*
X164790436Y-82584803D01*
X164791075Y-82585084D01*
G37*
G36*
X197141668Y-82296665D02*
G01*
X197142058Y-82298627D01*
X197141699Y-82299267D01*
X197098511Y-82350946D01*
X197089880Y-82419661D01*
X197119844Y-82482291D01*
X197140682Y-82500348D01*
X197141336Y-82502238D01*
X197140026Y-82503749D01*
X197138982Y-82503821D01*
X197124801Y-82501000D01*
X194625199Y-82501000D01*
X194610226Y-82503978D01*
X194608332Y-82503335D01*
X194607942Y-82501373D01*
X194608301Y-82500733D01*
X194651489Y-82449054D01*
X194660120Y-82380339D01*
X194630156Y-82317709D01*
X194609318Y-82299652D01*
X194608664Y-82297762D01*
X194609974Y-82296251D01*
X194611018Y-82296179D01*
X194625199Y-82299000D01*
X197124801Y-82299000D01*
X197139774Y-82296022D01*
X197141668Y-82296665D01*
G37*
G36*
X164791075Y-81935084D02*
G01*
X164806263Y-81945233D01*
X164825199Y-81949000D01*
X166574801Y-81949000D01*
X166593738Y-81945233D01*
X166608773Y-81935186D01*
X166610768Y-81935055D01*
X166611880Y-81936718D01*
X166611793Y-81937447D01*
X166592898Y-81997788D01*
X166611955Y-82062690D01*
X166611483Y-82064633D01*
X166609564Y-82065197D01*
X166608925Y-82064916D01*
X166593737Y-82054767D01*
X166574801Y-82051000D01*
X164825199Y-82051000D01*
X164806262Y-82054767D01*
X164791227Y-82064814D01*
X164789232Y-82064945D01*
X164788120Y-82063282D01*
X164788207Y-82062553D01*
X164807102Y-82002212D01*
X164788045Y-81937310D01*
X164788517Y-81935367D01*
X164790436Y-81934803D01*
X164791075Y-81935084D01*
G37*
G36*
X157591075Y-81935084D02*
G01*
X157606263Y-81945233D01*
X157625199Y-81949000D01*
X159374801Y-81949000D01*
X159393738Y-81945233D01*
X159408773Y-81935186D01*
X159410768Y-81935055D01*
X159411880Y-81936718D01*
X159411793Y-81937447D01*
X159392898Y-81997788D01*
X159411955Y-82062690D01*
X159411483Y-82064633D01*
X159409564Y-82065197D01*
X159408925Y-82064916D01*
X159393737Y-82054767D01*
X159374801Y-82051000D01*
X157625199Y-82051000D01*
X157606262Y-82054767D01*
X157591227Y-82064814D01*
X157589232Y-82064945D01*
X157588120Y-82063282D01*
X157588207Y-82062553D01*
X157607102Y-82002212D01*
X157588045Y-81937310D01*
X157588517Y-81935367D01*
X157590436Y-81934803D01*
X157591075Y-81935084D01*
G37*
G36*
X197141668Y-81496665D02*
G01*
X197142058Y-81498627D01*
X197141699Y-81499267D01*
X197098511Y-81550946D01*
X197089880Y-81619661D01*
X197119844Y-81682291D01*
X197140682Y-81700348D01*
X197141336Y-81702238D01*
X197140026Y-81703749D01*
X197138982Y-81703821D01*
X197124801Y-81701000D01*
X194625199Y-81701000D01*
X194610226Y-81703978D01*
X194608332Y-81703335D01*
X194607942Y-81701373D01*
X194608301Y-81700733D01*
X194651489Y-81649054D01*
X194660120Y-81580339D01*
X194630156Y-81517709D01*
X194609318Y-81499652D01*
X194608664Y-81497762D01*
X194609974Y-81496251D01*
X194611018Y-81496179D01*
X194625199Y-81499000D01*
X197124801Y-81499000D01*
X197139774Y-81496022D01*
X197141668Y-81496665D01*
G37*
G36*
X157591075Y-81285084D02*
G01*
X157606263Y-81295233D01*
X157625199Y-81299000D01*
X159374801Y-81299000D01*
X159393738Y-81295233D01*
X159408773Y-81285186D01*
X159410768Y-81285055D01*
X159411880Y-81286718D01*
X159411793Y-81287447D01*
X159392898Y-81347788D01*
X159411955Y-81412690D01*
X159411483Y-81414633D01*
X159409564Y-81415197D01*
X159408925Y-81414916D01*
X159393737Y-81404767D01*
X159374801Y-81401000D01*
X157625199Y-81401000D01*
X157606262Y-81404767D01*
X157591227Y-81414814D01*
X157589232Y-81414945D01*
X157588120Y-81413282D01*
X157588207Y-81412553D01*
X157607102Y-81352212D01*
X157588045Y-81287310D01*
X157588517Y-81285367D01*
X157590436Y-81284803D01*
X157591075Y-81285084D01*
G37*
G36*
X164791075Y-81285084D02*
G01*
X164806263Y-81295233D01*
X164825199Y-81299000D01*
X166574801Y-81299000D01*
X166593738Y-81295233D01*
X166608773Y-81285186D01*
X166610768Y-81285055D01*
X166611880Y-81286718D01*
X166611793Y-81287447D01*
X166592898Y-81347788D01*
X166611955Y-81412690D01*
X166611483Y-81414633D01*
X166609564Y-81415197D01*
X166608925Y-81414916D01*
X166593737Y-81404767D01*
X166574801Y-81401000D01*
X164825199Y-81401000D01*
X164806262Y-81404767D01*
X164791227Y-81414814D01*
X164789232Y-81414945D01*
X164788120Y-81413282D01*
X164788207Y-81412553D01*
X164807102Y-81352212D01*
X164788045Y-81287310D01*
X164788517Y-81285367D01*
X164790436Y-81284803D01*
X164791075Y-81285084D01*
G37*
G36*
X197141668Y-80696665D02*
G01*
X197142058Y-80698627D01*
X197141699Y-80699267D01*
X197098511Y-80750946D01*
X197089880Y-80819661D01*
X197119844Y-80882291D01*
X197140682Y-80900348D01*
X197141336Y-80902238D01*
X197140026Y-80903749D01*
X197138982Y-80903821D01*
X197124801Y-80901000D01*
X194625199Y-80901000D01*
X194610226Y-80903978D01*
X194608332Y-80903335D01*
X194607942Y-80901373D01*
X194608301Y-80900733D01*
X194651489Y-80849054D01*
X194660120Y-80780339D01*
X194630156Y-80717709D01*
X194609318Y-80699652D01*
X194608664Y-80697762D01*
X194609974Y-80696251D01*
X194611018Y-80696179D01*
X194625199Y-80699000D01*
X197124801Y-80699000D01*
X197139774Y-80696022D01*
X197141668Y-80696665D01*
G37*
G36*
X164791075Y-80635084D02*
G01*
X164806263Y-80645233D01*
X164825199Y-80649000D01*
X166574801Y-80649000D01*
X166593738Y-80645233D01*
X166608773Y-80635186D01*
X166610768Y-80635055D01*
X166611880Y-80636718D01*
X166611793Y-80637447D01*
X166592898Y-80697788D01*
X166611955Y-80762690D01*
X166611483Y-80764633D01*
X166609564Y-80765197D01*
X166608925Y-80764916D01*
X166593737Y-80754767D01*
X166574801Y-80751000D01*
X164825199Y-80751000D01*
X164806262Y-80754767D01*
X164791227Y-80764814D01*
X164789232Y-80764945D01*
X164788120Y-80763282D01*
X164788207Y-80762553D01*
X164807102Y-80702212D01*
X164788045Y-80637310D01*
X164788517Y-80635367D01*
X164790436Y-80634803D01*
X164791075Y-80635084D01*
G37*
G36*
X157591075Y-80635084D02*
G01*
X157606263Y-80645233D01*
X157625199Y-80649000D01*
X159374801Y-80649000D01*
X159393738Y-80645233D01*
X159408773Y-80635186D01*
X159410768Y-80635055D01*
X159411880Y-80636718D01*
X159411793Y-80637447D01*
X159392898Y-80697788D01*
X159411955Y-80762690D01*
X159411483Y-80764633D01*
X159409564Y-80765197D01*
X159408925Y-80764916D01*
X159393737Y-80754767D01*
X159374801Y-80751000D01*
X157625199Y-80751000D01*
X157606262Y-80754767D01*
X157591227Y-80764814D01*
X157589232Y-80764945D01*
X157588120Y-80763282D01*
X157588207Y-80762553D01*
X157607102Y-80702212D01*
X157588045Y-80637310D01*
X157588517Y-80635367D01*
X157590436Y-80634803D01*
X157591075Y-80635084D01*
G37*
G36*
X164791075Y-79985084D02*
G01*
X164806263Y-79995233D01*
X164825199Y-79999000D01*
X166574801Y-79999000D01*
X166593738Y-79995233D01*
X166608773Y-79985186D01*
X166610768Y-79985055D01*
X166611880Y-79986718D01*
X166611793Y-79987447D01*
X166592898Y-80047788D01*
X166611955Y-80112690D01*
X166611483Y-80114633D01*
X166609564Y-80115197D01*
X166608925Y-80114916D01*
X166593737Y-80104767D01*
X166574801Y-80101000D01*
X164825199Y-80101000D01*
X164806262Y-80104767D01*
X164791227Y-80114814D01*
X164789232Y-80114945D01*
X164788120Y-80113282D01*
X164788207Y-80112553D01*
X164807102Y-80052212D01*
X164788045Y-79987310D01*
X164788517Y-79985367D01*
X164790436Y-79984803D01*
X164791075Y-79985084D01*
G37*
G36*
X157591075Y-79985084D02*
G01*
X157606263Y-79995233D01*
X157625199Y-79999000D01*
X159374801Y-79999000D01*
X159393738Y-79995233D01*
X159408773Y-79985186D01*
X159410768Y-79985055D01*
X159411880Y-79986718D01*
X159411793Y-79987447D01*
X159392898Y-80047788D01*
X159411955Y-80112690D01*
X159411483Y-80114633D01*
X159409564Y-80115197D01*
X159408925Y-80114916D01*
X159393737Y-80104767D01*
X159374801Y-80101000D01*
X157625199Y-80101000D01*
X157606262Y-80104767D01*
X157591227Y-80114814D01*
X157589232Y-80114945D01*
X157588120Y-80113282D01*
X157588207Y-80112553D01*
X157607102Y-80052212D01*
X157588045Y-79987310D01*
X157588517Y-79985367D01*
X157590436Y-79984803D01*
X157591075Y-79985084D01*
G37*
G36*
X164791075Y-79335084D02*
G01*
X164806263Y-79345233D01*
X164825199Y-79349000D01*
X166574801Y-79349000D01*
X166593738Y-79345233D01*
X166608773Y-79335186D01*
X166610768Y-79335055D01*
X166611880Y-79336718D01*
X166611793Y-79337447D01*
X166592898Y-79397788D01*
X166611955Y-79462690D01*
X166611483Y-79464633D01*
X166609564Y-79465197D01*
X166608925Y-79464916D01*
X166593737Y-79454767D01*
X166574801Y-79451000D01*
X164825199Y-79451000D01*
X164806262Y-79454767D01*
X164791227Y-79464814D01*
X164789232Y-79464945D01*
X164788120Y-79463282D01*
X164788207Y-79462553D01*
X164807102Y-79402212D01*
X164788045Y-79337310D01*
X164788517Y-79335367D01*
X164790436Y-79334803D01*
X164791075Y-79335084D01*
G37*
G36*
X157591075Y-79335084D02*
G01*
X157606263Y-79345233D01*
X157625199Y-79349000D01*
X159374801Y-79349000D01*
X159393738Y-79345233D01*
X159408773Y-79335186D01*
X159410768Y-79335055D01*
X159411880Y-79336718D01*
X159411793Y-79337447D01*
X159392898Y-79397788D01*
X159411955Y-79462690D01*
X159411483Y-79464633D01*
X159409564Y-79465197D01*
X159408925Y-79464916D01*
X159393737Y-79454767D01*
X159374801Y-79451000D01*
X157625199Y-79451000D01*
X157606262Y-79454767D01*
X157591227Y-79464814D01*
X157589232Y-79464945D01*
X157588120Y-79463282D01*
X157588207Y-79462553D01*
X157607102Y-79402212D01*
X157588045Y-79337310D01*
X157588517Y-79335367D01*
X157590436Y-79334803D01*
X157591075Y-79335084D01*
G37*
G36*
X164791075Y-78685084D02*
G01*
X164806263Y-78695233D01*
X164825199Y-78699000D01*
X166574801Y-78699000D01*
X166593738Y-78695233D01*
X166608773Y-78685186D01*
X166610768Y-78685055D01*
X166611880Y-78686718D01*
X166611793Y-78687447D01*
X166592898Y-78747788D01*
X166611955Y-78812690D01*
X166611483Y-78814633D01*
X166609564Y-78815197D01*
X166608925Y-78814916D01*
X166593737Y-78804767D01*
X166574801Y-78801000D01*
X164825199Y-78801000D01*
X164806262Y-78804767D01*
X164791227Y-78814814D01*
X164789232Y-78814945D01*
X164788120Y-78813282D01*
X164788207Y-78812553D01*
X164807102Y-78752212D01*
X164788045Y-78687310D01*
X164788517Y-78685367D01*
X164790436Y-78684803D01*
X164791075Y-78685084D01*
G37*
G36*
X157591075Y-78685084D02*
G01*
X157606263Y-78695233D01*
X157625199Y-78699000D01*
X159374801Y-78699000D01*
X159393738Y-78695233D01*
X159408773Y-78685186D01*
X159410768Y-78685055D01*
X159411880Y-78686718D01*
X159411793Y-78687447D01*
X159392898Y-78747788D01*
X159411955Y-78812690D01*
X159411483Y-78814633D01*
X159409564Y-78815197D01*
X159408925Y-78814916D01*
X159393737Y-78804767D01*
X159374801Y-78801000D01*
X157625199Y-78801000D01*
X157606262Y-78804767D01*
X157591227Y-78814814D01*
X157589232Y-78814945D01*
X157588120Y-78813282D01*
X157588207Y-78812553D01*
X157607102Y-78752212D01*
X157588045Y-78687310D01*
X157588517Y-78685367D01*
X157590436Y-78684803D01*
X157591075Y-78685084D01*
G37*
G36*
X170926442Y-78574424D02*
G01*
X171075132Y-78594000D01*
X171524868Y-78594000D01*
X171673558Y-78574424D01*
X171797565Y-78523059D01*
X171799548Y-78523320D01*
X171800313Y-78525168D01*
X171799463Y-78526555D01*
X171792570Y-78531293D01*
X171792144Y-78531516D01*
X171769506Y-78540070D01*
X171714002Y-78581992D01*
X171690075Y-78646987D01*
X171705087Y-78714597D01*
X171754436Y-78763526D01*
X171768094Y-78769851D01*
X171797487Y-78781311D01*
X171797910Y-78781538D01*
X171802304Y-78784626D01*
X171803146Y-78786440D01*
X171801996Y-78788076D01*
X171800389Y-78788110D01*
X171673558Y-78735576D01*
X171524868Y-78716000D01*
X171075132Y-78716000D01*
X170926442Y-78735576D01*
X170802435Y-78786941D01*
X170800452Y-78786680D01*
X170799687Y-78784832D01*
X170800537Y-78783445D01*
X170807430Y-78778707D01*
X170807856Y-78778484D01*
X170830494Y-78769930D01*
X170885998Y-78728008D01*
X170909925Y-78663013D01*
X170894913Y-78595403D01*
X170845564Y-78546474D01*
X170831906Y-78540149D01*
X170802513Y-78528689D01*
X170802090Y-78528462D01*
X170797696Y-78525374D01*
X170796854Y-78523560D01*
X170798004Y-78521924D01*
X170799611Y-78521890D01*
X170926442Y-78574424D01*
G37*
G36*
X164791075Y-78035084D02*
G01*
X164806263Y-78045233D01*
X164825199Y-78049000D01*
X166574801Y-78049000D01*
X166593738Y-78045233D01*
X166608773Y-78035186D01*
X166610768Y-78035055D01*
X166611880Y-78036718D01*
X166611793Y-78037447D01*
X166592898Y-78097788D01*
X166611955Y-78162690D01*
X166611483Y-78164633D01*
X166609564Y-78165197D01*
X166608925Y-78164916D01*
X166593737Y-78154767D01*
X166574801Y-78151000D01*
X164825199Y-78151000D01*
X164806262Y-78154767D01*
X164791227Y-78164814D01*
X164789232Y-78164945D01*
X164788120Y-78163282D01*
X164788207Y-78162553D01*
X164807102Y-78102212D01*
X164788045Y-78037310D01*
X164788517Y-78035367D01*
X164790436Y-78034803D01*
X164791075Y-78035084D01*
G37*
G36*
X157591075Y-78035084D02*
G01*
X157606263Y-78045233D01*
X157625199Y-78049000D01*
X159374801Y-78049000D01*
X159393738Y-78045233D01*
X159408773Y-78035186D01*
X159410768Y-78035055D01*
X159411880Y-78036718D01*
X159411793Y-78037447D01*
X159392898Y-78097788D01*
X159411955Y-78162690D01*
X159411483Y-78164633D01*
X159409564Y-78165197D01*
X159408925Y-78164916D01*
X159393737Y-78154767D01*
X159374801Y-78151000D01*
X157625199Y-78151000D01*
X157606262Y-78154767D01*
X157591227Y-78164814D01*
X157589232Y-78164945D01*
X157588120Y-78163282D01*
X157588207Y-78162553D01*
X157607102Y-78102212D01*
X157588045Y-78037310D01*
X157588517Y-78035367D01*
X157590436Y-78034803D01*
X157591075Y-78035084D01*
G37*
G36*
X171927410Y-77325000D02*
G01*
X171927410Y-77327000D01*
X171926241Y-77327919D01*
X171859229Y-77347595D01*
X171813874Y-77399938D01*
X171804017Y-77468491D01*
X171832860Y-77531648D01*
X171849370Y-77546563D01*
X171849985Y-77548466D01*
X171848644Y-77549950D01*
X171846811Y-77549634D01*
X171811990Y-77522915D01*
X171673558Y-77465576D01*
X171524868Y-77446000D01*
X171075132Y-77446000D01*
X170926442Y-77465576D01*
X170788010Y-77522915D01*
X170747662Y-77553875D01*
X170745679Y-77554136D01*
X170744461Y-77552549D01*
X170744893Y-77551026D01*
X170787572Y-77498579D01*
X170795303Y-77429751D01*
X170764598Y-77367672D01*
X170705061Y-77331962D01*
X170673986Y-77327984D01*
X170672395Y-77326772D01*
X170672649Y-77324788D01*
X170674240Y-77324000D01*
X171925678Y-77324000D01*
X171927410Y-77325000D01*
G37*
M02*
