G04 #@! TF.GenerationSoftware,KiCad,Pcbnew,6.99.0-a9ca49a600~144~ubuntu20.04.1*
G04 #@! TF.CreationDate,2022-03-01T02:01:25-05:00*
G04 #@! TF.ProjectId,pa-jtag,70612d6a-7461-4672-9e6b-696361645f70,rev?*
G04 #@! TF.SameCoordinates,Original*
G04 #@! TF.FileFunction,Legend,Top*
G04 #@! TF.FilePolarity,Positive*
%FSLAX46Y46*%
G04 Gerber Fmt 4.6, Leading zero omitted, Abs format (unit mm)*
G04 Created by KiCad (PCBNEW 6.99.0-a9ca49a600~144~ubuntu20.04.1) date 2022-03-01 02:01:25*
%MOMM*%
%LPD*%
G01*
G04 APERTURE LIST*
%ADD10C,0.125000*%
%ADD11C,0.175000*%
%ADD12C,0.304800*%
%ADD13C,0.150000*%
%ADD14C,0.120000*%
G04 APERTURE END LIST*
D10*
X151735714Y-74926190D02*
X151569047Y-74688095D01*
X151450000Y-74926190D02*
X151450000Y-74426190D01*
X151640476Y-74426190D01*
X151688095Y-74450000D01*
X151711904Y-74473809D01*
X151735714Y-74521428D01*
X151735714Y-74592857D01*
X151711904Y-74640476D01*
X151688095Y-74664285D01*
X151640476Y-74688095D01*
X151450000Y-74688095D01*
X151950000Y-74926190D02*
X151950000Y-74426190D01*
X148719047Y-74450000D02*
X148671428Y-74426190D01*
X148600000Y-74426190D01*
X148528571Y-74450000D01*
X148480952Y-74497619D01*
X148457142Y-74545238D01*
X148433333Y-74640476D01*
X148433333Y-74711904D01*
X148457142Y-74807142D01*
X148480952Y-74854761D01*
X148528571Y-74902380D01*
X148600000Y-74926190D01*
X148647619Y-74926190D01*
X148719047Y-74902380D01*
X148742857Y-74878571D01*
X148742857Y-74711904D01*
X148647619Y-74711904D01*
X148957142Y-74926190D02*
X148957142Y-74426190D01*
X149242857Y-74926190D01*
X149242857Y-74426190D01*
X149480952Y-74926190D02*
X149480952Y-74426190D01*
X149600000Y-74426190D01*
X149671428Y-74450000D01*
X149719047Y-74497619D01*
X149742857Y-74545238D01*
X149766666Y-74640476D01*
X149766666Y-74711904D01*
X149742857Y-74807142D01*
X149719047Y-74854761D01*
X149671428Y-74902380D01*
X149600000Y-74926190D01*
X149480952Y-74926190D01*
D11*
X189666666Y-95816666D02*
X189900000Y-96516666D01*
X190133333Y-95816666D01*
X190500000Y-95816666D02*
X190633333Y-95816666D01*
X190700000Y-95850000D01*
X190766666Y-95916666D01*
X190800000Y-96050000D01*
X190800000Y-96283333D01*
X190766666Y-96416666D01*
X190700000Y-96483333D01*
X190633333Y-96516666D01*
X190500000Y-96516666D01*
X190433333Y-96483333D01*
X190366666Y-96416666D01*
X190333333Y-96283333D01*
X190333333Y-96050000D01*
X190366666Y-95916666D01*
X190433333Y-95850000D01*
X190500000Y-95816666D01*
X191100000Y-95816666D02*
X191100000Y-96383333D01*
X191133333Y-96450000D01*
X191166666Y-96483333D01*
X191233333Y-96516666D01*
X191366666Y-96516666D01*
X191433333Y-96483333D01*
X191466666Y-96450000D01*
X191500000Y-96383333D01*
X191500000Y-95816666D01*
X191733333Y-95816666D02*
X192133333Y-95816666D01*
X191933333Y-96516666D02*
X191933333Y-95816666D01*
X189416666Y-68500000D02*
X189950000Y-68500000D01*
X189683333Y-68766666D02*
X189683333Y-68233333D01*
X190216666Y-68066666D02*
X190650000Y-68066666D01*
X190416666Y-68333333D01*
X190516666Y-68333333D01*
X190583333Y-68366666D01*
X190616666Y-68400000D01*
X190650000Y-68466666D01*
X190650000Y-68633333D01*
X190616666Y-68700000D01*
X190583333Y-68733333D01*
X190516666Y-68766666D01*
X190316666Y-68766666D01*
X190250000Y-68733333D01*
X190216666Y-68700000D01*
X190850000Y-68066666D02*
X191083333Y-68766666D01*
X191316666Y-68066666D01*
X191483333Y-68066666D02*
X191916666Y-68066666D01*
X191683333Y-68333333D01*
X191783333Y-68333333D01*
X191850000Y-68366666D01*
X191883333Y-68400000D01*
X191916666Y-68466666D01*
X191916666Y-68633333D01*
X191883333Y-68700000D01*
X191850000Y-68733333D01*
X191783333Y-68766666D01*
X191583333Y-68766666D01*
X191516666Y-68733333D01*
X191483333Y-68700000D01*
D10*
X156566666Y-74878571D02*
X156542857Y-74902380D01*
X156471428Y-74926190D01*
X156423809Y-74926190D01*
X156352380Y-74902380D01*
X156304761Y-74854761D01*
X156280952Y-74807142D01*
X156257142Y-74711904D01*
X156257142Y-74640476D01*
X156280952Y-74545238D01*
X156304761Y-74497619D01*
X156352380Y-74450000D01*
X156423809Y-74426190D01*
X156471428Y-74426190D01*
X156542857Y-74450000D01*
X156566666Y-74473809D01*
X156947619Y-74664285D02*
X157019047Y-74688095D01*
X157042857Y-74711904D01*
X157066666Y-74759523D01*
X157066666Y-74830952D01*
X157042857Y-74878571D01*
X157019047Y-74902380D01*
X156971428Y-74926190D01*
X156780952Y-74926190D01*
X156780952Y-74426190D01*
X156947619Y-74426190D01*
X156995238Y-74450000D01*
X157019047Y-74473809D01*
X157042857Y-74521428D01*
X157042857Y-74569047D01*
X157019047Y-74616666D01*
X156995238Y-74640476D01*
X156947619Y-74664285D01*
X156780952Y-74664285D01*
X157280952Y-74426190D02*
X157280952Y-74830952D01*
X157304761Y-74878571D01*
X157328571Y-74902380D01*
X157376190Y-74926190D01*
X157471428Y-74926190D01*
X157519047Y-74902380D01*
X157542857Y-74878571D01*
X157566666Y-74830952D01*
X157566666Y-74426190D01*
X157780952Y-74902380D02*
X157852380Y-74926190D01*
X157971428Y-74926190D01*
X158019047Y-74902380D01*
X158042857Y-74878571D01*
X158066666Y-74830952D01*
X158066666Y-74783333D01*
X158042857Y-74735714D01*
X158019047Y-74711904D01*
X157971428Y-74688095D01*
X157876190Y-74664285D01*
X157828571Y-74640476D01*
X157804761Y-74616666D01*
X157780952Y-74569047D01*
X157780952Y-74521428D01*
X157804761Y-74473809D01*
X157828571Y-74450000D01*
X157876190Y-74426190D01*
X157995238Y-74426190D01*
X158066666Y-74450000D01*
X158233333Y-74426190D02*
X158542857Y-74426190D01*
X158376190Y-74616666D01*
X158447619Y-74616666D01*
X158495238Y-74640476D01*
X158519047Y-74664285D01*
X158542857Y-74711904D01*
X158542857Y-74830952D01*
X158519047Y-74878571D01*
X158495238Y-74902380D01*
X158447619Y-74926190D01*
X158304761Y-74926190D01*
X158257142Y-74902380D01*
X158233333Y-74878571D01*
D11*
X188400000Y-90666666D02*
X188633333Y-91366666D01*
X188866666Y-90666666D01*
X189066666Y-91333333D02*
X189166666Y-91366666D01*
X189333333Y-91366666D01*
X189400000Y-91333333D01*
X189433333Y-91300000D01*
X189466666Y-91233333D01*
X189466666Y-91166666D01*
X189433333Y-91100000D01*
X189400000Y-91066666D01*
X189333333Y-91033333D01*
X189200000Y-91000000D01*
X189133333Y-90966666D01*
X189100000Y-90933333D01*
X189066666Y-90866666D01*
X189066666Y-90800000D01*
X189100000Y-90733333D01*
X189133333Y-90700000D01*
X189200000Y-90666666D01*
X189366666Y-90666666D01*
X189466666Y-90700000D01*
X189766666Y-91000000D02*
X190000000Y-91000000D01*
X190100000Y-91366666D02*
X189766666Y-91366666D01*
X189766666Y-90666666D01*
X190100000Y-90666666D01*
X190400000Y-91366666D02*
X190400000Y-90666666D01*
X190800000Y-91366666D01*
X190800000Y-90666666D01*
X191100000Y-91333333D02*
X191200000Y-91366666D01*
X191366666Y-91366666D01*
X191433333Y-91333333D01*
X191466666Y-91300000D01*
X191500000Y-91233333D01*
X191500000Y-91166666D01*
X191466666Y-91100000D01*
X191433333Y-91066666D01*
X191366666Y-91033333D01*
X191233333Y-91000000D01*
X191166666Y-90966666D01*
X191133333Y-90933333D01*
X191100000Y-90866666D01*
X191100000Y-90800000D01*
X191133333Y-90733333D01*
X191166666Y-90700000D01*
X191233333Y-90666666D01*
X191400000Y-90666666D01*
X191500000Y-90700000D01*
X191800000Y-91000000D02*
X192033333Y-91000000D01*
X192133333Y-91366666D02*
X191800000Y-91366666D01*
X191800000Y-90666666D01*
X192133333Y-90666666D01*
D10*
X144842857Y-74326190D02*
X145009523Y-74826190D01*
X145176190Y-74326190D01*
X145319047Y-74802380D02*
X145390476Y-74826190D01*
X145509523Y-74826190D01*
X145557142Y-74802380D01*
X145580952Y-74778571D01*
X145604761Y-74730952D01*
X145604761Y-74683333D01*
X145580952Y-74635714D01*
X145557142Y-74611904D01*
X145509523Y-74588095D01*
X145414285Y-74564285D01*
X145366666Y-74540476D01*
X145342857Y-74516666D01*
X145319047Y-74469047D01*
X145319047Y-74421428D01*
X145342857Y-74373809D01*
X145366666Y-74350000D01*
X145414285Y-74326190D01*
X145533333Y-74326190D01*
X145604761Y-74350000D01*
X145819047Y-74564285D02*
X145985714Y-74564285D01*
X146057142Y-74826190D02*
X145819047Y-74826190D01*
X145819047Y-74326190D01*
X146057142Y-74326190D01*
X146271428Y-74826190D02*
X146271428Y-74326190D01*
X146557142Y-74826190D01*
X146557142Y-74326190D01*
X146771428Y-74802380D02*
X146842857Y-74826190D01*
X146961904Y-74826190D01*
X147009523Y-74802380D01*
X147033333Y-74778571D01*
X147057142Y-74730952D01*
X147057142Y-74683333D01*
X147033333Y-74635714D01*
X147009523Y-74611904D01*
X146961904Y-74588095D01*
X146866666Y-74564285D01*
X146819047Y-74540476D01*
X146795238Y-74516666D01*
X146771428Y-74469047D01*
X146771428Y-74421428D01*
X146795238Y-74373809D01*
X146819047Y-74350000D01*
X146866666Y-74326190D01*
X146985714Y-74326190D01*
X147057142Y-74350000D01*
X147271428Y-74564285D02*
X147438095Y-74564285D01*
X147509523Y-74826190D02*
X147271428Y-74826190D01*
X147271428Y-74326190D01*
X147509523Y-74326190D01*
X153666666Y-73678571D02*
X153642857Y-73702380D01*
X153571428Y-73726190D01*
X153523809Y-73726190D01*
X153452380Y-73702380D01*
X153404761Y-73654761D01*
X153380952Y-73607142D01*
X153357142Y-73511904D01*
X153357142Y-73440476D01*
X153380952Y-73345238D01*
X153404761Y-73297619D01*
X153452380Y-73250000D01*
X153523809Y-73226190D01*
X153571428Y-73226190D01*
X153642857Y-73250000D01*
X153666666Y-73273809D01*
X154047619Y-73464285D02*
X154119047Y-73488095D01*
X154142857Y-73511904D01*
X154166666Y-73559523D01*
X154166666Y-73630952D01*
X154142857Y-73678571D01*
X154119047Y-73702380D01*
X154071428Y-73726190D01*
X153880952Y-73726190D01*
X153880952Y-73226190D01*
X154047619Y-73226190D01*
X154095238Y-73250000D01*
X154119047Y-73273809D01*
X154142857Y-73321428D01*
X154142857Y-73369047D01*
X154119047Y-73416666D01*
X154095238Y-73440476D01*
X154047619Y-73464285D01*
X153880952Y-73464285D01*
X154380952Y-73226190D02*
X154380952Y-73630952D01*
X154404761Y-73678571D01*
X154428571Y-73702380D01*
X154476190Y-73726190D01*
X154571428Y-73726190D01*
X154619047Y-73702380D01*
X154642857Y-73678571D01*
X154666666Y-73630952D01*
X154666666Y-73226190D01*
X154880952Y-73702380D02*
X154952380Y-73726190D01*
X155071428Y-73726190D01*
X155119047Y-73702380D01*
X155142857Y-73678571D01*
X155166666Y-73630952D01*
X155166666Y-73583333D01*
X155142857Y-73535714D01*
X155119047Y-73511904D01*
X155071428Y-73488095D01*
X154976190Y-73464285D01*
X154928571Y-73440476D01*
X154904761Y-73416666D01*
X154880952Y-73369047D01*
X154880952Y-73321428D01*
X154904761Y-73273809D01*
X154928571Y-73250000D01*
X154976190Y-73226190D01*
X155095238Y-73226190D01*
X155166666Y-73250000D01*
X155357142Y-73273809D02*
X155380952Y-73250000D01*
X155428571Y-73226190D01*
X155547619Y-73226190D01*
X155595238Y-73250000D01*
X155619047Y-73273809D01*
X155642857Y-73321428D01*
X155642857Y-73369047D01*
X155619047Y-73440476D01*
X155333333Y-73726190D01*
X155642857Y-73726190D01*
D11*
X189950000Y-73850000D02*
X190483333Y-73850000D01*
X190216666Y-74116666D02*
X190216666Y-73583333D01*
X191150000Y-73416666D02*
X190816666Y-73416666D01*
X190783333Y-73750000D01*
X190816666Y-73716666D01*
X190883333Y-73683333D01*
X191050000Y-73683333D01*
X191116666Y-73716666D01*
X191150000Y-73750000D01*
X191183333Y-73816666D01*
X191183333Y-73983333D01*
X191150000Y-74050000D01*
X191116666Y-74083333D01*
X191050000Y-74116666D01*
X190883333Y-74116666D01*
X190816666Y-74083333D01*
X190783333Y-74050000D01*
X191383333Y-73416666D02*
X191616666Y-74116666D01*
X191850000Y-73416666D01*
D10*
X145719047Y-73226190D02*
X145885714Y-73726190D01*
X146052380Y-73226190D01*
X146314285Y-73226190D02*
X146409523Y-73226190D01*
X146457142Y-73250000D01*
X146504761Y-73297619D01*
X146528571Y-73392857D01*
X146528571Y-73559523D01*
X146504761Y-73654761D01*
X146457142Y-73702380D01*
X146409523Y-73726190D01*
X146314285Y-73726190D01*
X146266666Y-73702380D01*
X146219047Y-73654761D01*
X146195238Y-73559523D01*
X146195238Y-73392857D01*
X146219047Y-73297619D01*
X146266666Y-73250000D01*
X146314285Y-73226190D01*
X146742857Y-73226190D02*
X146742857Y-73630952D01*
X146766666Y-73678571D01*
X146790476Y-73702380D01*
X146838095Y-73726190D01*
X146933333Y-73726190D01*
X146980952Y-73702380D01*
X147004761Y-73678571D01*
X147028571Y-73630952D01*
X147028571Y-73226190D01*
X147195238Y-73226190D02*
X147480952Y-73226190D01*
X147338095Y-73726190D02*
X147338095Y-73226190D01*
X156566666Y-73678571D02*
X156542857Y-73702380D01*
X156471428Y-73726190D01*
X156423809Y-73726190D01*
X156352380Y-73702380D01*
X156304761Y-73654761D01*
X156280952Y-73607142D01*
X156257142Y-73511904D01*
X156257142Y-73440476D01*
X156280952Y-73345238D01*
X156304761Y-73297619D01*
X156352380Y-73250000D01*
X156423809Y-73226190D01*
X156471428Y-73226190D01*
X156542857Y-73250000D01*
X156566666Y-73273809D01*
X156947619Y-73464285D02*
X157019047Y-73488095D01*
X157042857Y-73511904D01*
X157066666Y-73559523D01*
X157066666Y-73630952D01*
X157042857Y-73678571D01*
X157019047Y-73702380D01*
X156971428Y-73726190D01*
X156780952Y-73726190D01*
X156780952Y-73226190D01*
X156947619Y-73226190D01*
X156995238Y-73250000D01*
X157019047Y-73273809D01*
X157042857Y-73321428D01*
X157042857Y-73369047D01*
X157019047Y-73416666D01*
X156995238Y-73440476D01*
X156947619Y-73464285D01*
X156780952Y-73464285D01*
X157280952Y-73226190D02*
X157280952Y-73630952D01*
X157304761Y-73678571D01*
X157328571Y-73702380D01*
X157376190Y-73726190D01*
X157471428Y-73726190D01*
X157519047Y-73702380D01*
X157542857Y-73678571D01*
X157566666Y-73630952D01*
X157566666Y-73226190D01*
X157780952Y-73702380D02*
X157852380Y-73726190D01*
X157971428Y-73726190D01*
X158019047Y-73702380D01*
X158042857Y-73678571D01*
X158066666Y-73630952D01*
X158066666Y-73583333D01*
X158042857Y-73535714D01*
X158019047Y-73511904D01*
X157971428Y-73488095D01*
X157876190Y-73464285D01*
X157828571Y-73440476D01*
X157804761Y-73416666D01*
X157780952Y-73369047D01*
X157780952Y-73321428D01*
X157804761Y-73273809D01*
X157828571Y-73250000D01*
X157876190Y-73226190D01*
X157995238Y-73226190D01*
X158066666Y-73250000D01*
X158495238Y-73392857D02*
X158495238Y-73726190D01*
X158376190Y-73202380D02*
X158257142Y-73559523D01*
X158566666Y-73559523D01*
X150866666Y-73678571D02*
X150842857Y-73702380D01*
X150771428Y-73726190D01*
X150723809Y-73726190D01*
X150652380Y-73702380D01*
X150604761Y-73654761D01*
X150580952Y-73607142D01*
X150557142Y-73511904D01*
X150557142Y-73440476D01*
X150580952Y-73345238D01*
X150604761Y-73297619D01*
X150652380Y-73250000D01*
X150723809Y-73226190D01*
X150771428Y-73226190D01*
X150842857Y-73250000D01*
X150866666Y-73273809D01*
X151247619Y-73464285D02*
X151319047Y-73488095D01*
X151342857Y-73511904D01*
X151366666Y-73559523D01*
X151366666Y-73630952D01*
X151342857Y-73678571D01*
X151319047Y-73702380D01*
X151271428Y-73726190D01*
X151080952Y-73726190D01*
X151080952Y-73226190D01*
X151247619Y-73226190D01*
X151295238Y-73250000D01*
X151319047Y-73273809D01*
X151342857Y-73321428D01*
X151342857Y-73369047D01*
X151319047Y-73416666D01*
X151295238Y-73440476D01*
X151247619Y-73464285D01*
X151080952Y-73464285D01*
X151580952Y-73226190D02*
X151580952Y-73630952D01*
X151604761Y-73678571D01*
X151628571Y-73702380D01*
X151676190Y-73726190D01*
X151771428Y-73726190D01*
X151819047Y-73702380D01*
X151842857Y-73678571D01*
X151866666Y-73630952D01*
X151866666Y-73226190D01*
X152080952Y-73702380D02*
X152152380Y-73726190D01*
X152271428Y-73726190D01*
X152319047Y-73702380D01*
X152342857Y-73678571D01*
X152366666Y-73630952D01*
X152366666Y-73583333D01*
X152342857Y-73535714D01*
X152319047Y-73511904D01*
X152271428Y-73488095D01*
X152176190Y-73464285D01*
X152128571Y-73440476D01*
X152104761Y-73416666D01*
X152080952Y-73369047D01*
X152080952Y-73321428D01*
X152104761Y-73273809D01*
X152128571Y-73250000D01*
X152176190Y-73226190D01*
X152295238Y-73226190D01*
X152366666Y-73250000D01*
X152676190Y-73226190D02*
X152723809Y-73226190D01*
X152771428Y-73250000D01*
X152795238Y-73273809D01*
X152819047Y-73321428D01*
X152842857Y-73416666D01*
X152842857Y-73535714D01*
X152819047Y-73630952D01*
X152795238Y-73678571D01*
X152771428Y-73702380D01*
X152723809Y-73726190D01*
X152676190Y-73726190D01*
X152628571Y-73702380D01*
X152604761Y-73678571D01*
X152580952Y-73630952D01*
X152557142Y-73535714D01*
X152557142Y-73416666D01*
X152580952Y-73321428D01*
X152604761Y-73273809D01*
X152628571Y-73250000D01*
X152676190Y-73226190D01*
X148469047Y-73726190D02*
X148469047Y-73226190D01*
X148588095Y-73226190D01*
X148659523Y-73250000D01*
X148707142Y-73297619D01*
X148730952Y-73345238D01*
X148754761Y-73440476D01*
X148754761Y-73511904D01*
X148730952Y-73607142D01*
X148707142Y-73654761D01*
X148659523Y-73702380D01*
X148588095Y-73726190D01*
X148469047Y-73726190D01*
X149254761Y-73678571D02*
X149230952Y-73702380D01*
X149159523Y-73726190D01*
X149111904Y-73726190D01*
X149040476Y-73702380D01*
X148992857Y-73654761D01*
X148969047Y-73607142D01*
X148945238Y-73511904D01*
X148945238Y-73440476D01*
X148969047Y-73345238D01*
X148992857Y-73297619D01*
X149040476Y-73250000D01*
X149111904Y-73226190D01*
X149159523Y-73226190D01*
X149230952Y-73250000D01*
X149254761Y-73273809D01*
X149754761Y-73726190D02*
X149588095Y-73488095D01*
X149469047Y-73726190D02*
X149469047Y-73226190D01*
X149659523Y-73226190D01*
X149707142Y-73250000D01*
X149730952Y-73273809D01*
X149754761Y-73321428D01*
X149754761Y-73392857D01*
X149730952Y-73440476D01*
X149707142Y-73464285D01*
X149659523Y-73488095D01*
X149469047Y-73488095D01*
X153666666Y-74878571D02*
X153642857Y-74902380D01*
X153571428Y-74926190D01*
X153523809Y-74926190D01*
X153452380Y-74902380D01*
X153404761Y-74854761D01*
X153380952Y-74807142D01*
X153357142Y-74711904D01*
X153357142Y-74640476D01*
X153380952Y-74545238D01*
X153404761Y-74497619D01*
X153452380Y-74450000D01*
X153523809Y-74426190D01*
X153571428Y-74426190D01*
X153642857Y-74450000D01*
X153666666Y-74473809D01*
X154047619Y-74664285D02*
X154119047Y-74688095D01*
X154142857Y-74711904D01*
X154166666Y-74759523D01*
X154166666Y-74830952D01*
X154142857Y-74878571D01*
X154119047Y-74902380D01*
X154071428Y-74926190D01*
X153880952Y-74926190D01*
X153880952Y-74426190D01*
X154047619Y-74426190D01*
X154095238Y-74450000D01*
X154119047Y-74473809D01*
X154142857Y-74521428D01*
X154142857Y-74569047D01*
X154119047Y-74616666D01*
X154095238Y-74640476D01*
X154047619Y-74664285D01*
X153880952Y-74664285D01*
X154380952Y-74426190D02*
X154380952Y-74830952D01*
X154404761Y-74878571D01*
X154428571Y-74902380D01*
X154476190Y-74926190D01*
X154571428Y-74926190D01*
X154619047Y-74902380D01*
X154642857Y-74878571D01*
X154666666Y-74830952D01*
X154666666Y-74426190D01*
X154880952Y-74902380D02*
X154952380Y-74926190D01*
X155071428Y-74926190D01*
X155119047Y-74902380D01*
X155142857Y-74878571D01*
X155166666Y-74830952D01*
X155166666Y-74783333D01*
X155142857Y-74735714D01*
X155119047Y-74711904D01*
X155071428Y-74688095D01*
X154976190Y-74664285D01*
X154928571Y-74640476D01*
X154904761Y-74616666D01*
X154880952Y-74569047D01*
X154880952Y-74521428D01*
X154904761Y-74473809D01*
X154928571Y-74450000D01*
X154976190Y-74426190D01*
X155095238Y-74426190D01*
X155166666Y-74450000D01*
X155642857Y-74926190D02*
X155357142Y-74926190D01*
X155500000Y-74926190D02*
X155500000Y-74426190D01*
X155452380Y-74497619D01*
X155404761Y-74545238D01*
X155357142Y-74569047D01*
D12*
X207150438Y-89337000D02*
X207150438Y-88393571D01*
X207924533Y-88901571D01*
X207924533Y-88683857D01*
X208021295Y-88538714D01*
X208118057Y-88466142D01*
X208311580Y-88393571D01*
X208795390Y-88393571D01*
X208988914Y-88466142D01*
X209085676Y-88538714D01*
X209182438Y-88683857D01*
X209182438Y-89119285D01*
X209085676Y-89264428D01*
X208988914Y-89337000D01*
X209182438Y-86942142D02*
X209182438Y-87813000D01*
X209182438Y-87377571D02*
X207150438Y-87377571D01*
X207440723Y-87522714D01*
X207634247Y-87667857D01*
X207731009Y-87813000D01*
X208988914Y-86289000D02*
X209085676Y-86216428D01*
X209182438Y-86289000D01*
X209085676Y-86361571D01*
X208988914Y-86289000D01*
X209182438Y-86289000D01*
X207150438Y-85708428D02*
X207150438Y-84692428D01*
X209182438Y-85345571D01*
X207150438Y-83386142D02*
X207150438Y-84111857D01*
X208118057Y-84184428D01*
X208021295Y-84111857D01*
X207924533Y-83966714D01*
X207924533Y-83603857D01*
X208021295Y-83458714D01*
X208118057Y-83386142D01*
X208311580Y-83313571D01*
X208795390Y-83313571D01*
X208988914Y-83386142D01*
X209085676Y-83458714D01*
X209182438Y-83603857D01*
X209182438Y-83966714D01*
X209085676Y-84111857D01*
X208988914Y-84184428D01*
X207150438Y-82370142D02*
X207150438Y-82225000D01*
X207247200Y-82079857D01*
X207343961Y-82007285D01*
X207537485Y-81934714D01*
X207924533Y-81862142D01*
X208408342Y-81862142D01*
X208795390Y-81934714D01*
X208988914Y-82007285D01*
X209085676Y-82079857D01*
X209182438Y-82225000D01*
X209182438Y-82370142D01*
X209085676Y-82515285D01*
X208988914Y-82587857D01*
X208795390Y-82660428D01*
X208408342Y-82733000D01*
X207924533Y-82733000D01*
X207537485Y-82660428D01*
X207343961Y-82587857D01*
X207247200Y-82515285D01*
X207150438Y-82370142D01*
X207150438Y-80918714D02*
X207150438Y-80773571D01*
X207247200Y-80628428D01*
X207343961Y-80555857D01*
X207537485Y-80483285D01*
X207924533Y-80410714D01*
X208408342Y-80410714D01*
X208795390Y-80483285D01*
X208988914Y-80555857D01*
X209085676Y-80628428D01*
X209182438Y-80773571D01*
X209182438Y-80918714D01*
X209085676Y-81063857D01*
X208988914Y-81136428D01*
X208795390Y-81209000D01*
X208408342Y-81281571D01*
X207924533Y-81281571D01*
X207537485Y-81209000D01*
X207343961Y-81136428D01*
X207247200Y-81063857D01*
X207150438Y-80918714D01*
X209182438Y-78596428D02*
X207827771Y-78596428D01*
X208021295Y-78596428D02*
X207924533Y-78523857D01*
X207827771Y-78378714D01*
X207827771Y-78161000D01*
X207924533Y-78015857D01*
X208118057Y-77943285D01*
X209182438Y-77943285D01*
X208118057Y-77943285D02*
X207924533Y-77870714D01*
X207827771Y-77725571D01*
X207827771Y-77507857D01*
X207924533Y-77362714D01*
X208118057Y-77290142D01*
X209182438Y-77290142D01*
X209182438Y-76564428D02*
X207827771Y-76564428D01*
X208021295Y-76564428D02*
X207924533Y-76491857D01*
X207827771Y-76346714D01*
X207827771Y-76129000D01*
X207924533Y-75983857D01*
X208118057Y-75911285D01*
X209182438Y-75911285D01*
X208118057Y-75911285D02*
X207924533Y-75838714D01*
X207827771Y-75693571D01*
X207827771Y-75475857D01*
X207924533Y-75330714D01*
X208118057Y-75258142D01*
X209182438Y-75258142D01*
X202728540Y-98100000D02*
X211186420Y-98100000D01*
X202728540Y-66350000D02*
X211186420Y-66350000D01*
X210600000Y-98100000D02*
X210600000Y-90469114D01*
X210600000Y-73980885D02*
X210600000Y-66350000D01*
X210600000Y-98100000D02*
X211186421Y-96973496D01*
X210600000Y-98100000D02*
X210013579Y-96973496D01*
X210600000Y-66350000D02*
X210013579Y-67476504D01*
X210600000Y-66350000D02*
X211186421Y-67476504D01*
X154323397Y-55899835D02*
X154178254Y-55803073D01*
X154105682Y-55706311D01*
X154033111Y-55512787D01*
X154033111Y-55416025D01*
X154105682Y-55222501D01*
X154178254Y-55125740D01*
X154323397Y-55028978D01*
X154613682Y-55028978D01*
X154758825Y-55125740D01*
X154831397Y-55222501D01*
X154903968Y-55416025D01*
X154903968Y-55512787D01*
X154831397Y-55706311D01*
X154758825Y-55803073D01*
X154613682Y-55899835D01*
X154323397Y-55899835D01*
X154178254Y-55996597D01*
X154105682Y-56093359D01*
X154033111Y-56286882D01*
X154033111Y-56673930D01*
X154105682Y-56867454D01*
X154178254Y-56964216D01*
X154323397Y-57060978D01*
X154613682Y-57060978D01*
X154758825Y-56964216D01*
X154831397Y-56867454D01*
X154903968Y-56673930D01*
X154903968Y-56286882D01*
X154831397Y-56093359D01*
X154758825Y-55996597D01*
X154613682Y-55899835D01*
X155411968Y-55028978D02*
X156355397Y-55028978D01*
X155847397Y-55803073D01*
X156065111Y-55803073D01*
X156210254Y-55899835D01*
X156282825Y-55996597D01*
X156355397Y-56190120D01*
X156355397Y-56673930D01*
X156282825Y-56867454D01*
X156210254Y-56964216D01*
X156065111Y-57060978D01*
X155629682Y-57060978D01*
X155484540Y-56964216D01*
X155411968Y-56867454D01*
X157008540Y-56867454D02*
X157081111Y-56964216D01*
X157008540Y-57060978D01*
X156935968Y-56964216D01*
X157008540Y-56867454D01*
X157008540Y-57060978D01*
X157951968Y-55899835D02*
X157806825Y-55803073D01*
X157734254Y-55706311D01*
X157661682Y-55512787D01*
X157661682Y-55416025D01*
X157734254Y-55222501D01*
X157806825Y-55125740D01*
X157951968Y-55028978D01*
X158242254Y-55028978D01*
X158387397Y-55125740D01*
X158459968Y-55222501D01*
X158532540Y-55416025D01*
X158532540Y-55512787D01*
X158459968Y-55706311D01*
X158387397Y-55803073D01*
X158242254Y-55899835D01*
X157951968Y-55899835D01*
X157806825Y-55996597D01*
X157734254Y-56093359D01*
X157661682Y-56286882D01*
X157661682Y-56673930D01*
X157734254Y-56867454D01*
X157806825Y-56964216D01*
X157951968Y-57060978D01*
X158242254Y-57060978D01*
X158387397Y-56964216D01*
X158459968Y-56867454D01*
X158532540Y-56673930D01*
X158532540Y-56286882D01*
X158459968Y-56093359D01*
X158387397Y-55996597D01*
X158242254Y-55899835D01*
X159113111Y-55222501D02*
X159185682Y-55125740D01*
X159330825Y-55028978D01*
X159693682Y-55028978D01*
X159838825Y-55125740D01*
X159911397Y-55222501D01*
X159983968Y-55416025D01*
X159983968Y-55609549D01*
X159911397Y-55899835D01*
X159040540Y-57060978D01*
X159983968Y-57060978D01*
X160927397Y-55028978D02*
X161072540Y-55028978D01*
X161217682Y-55125740D01*
X161290254Y-55222501D01*
X161362825Y-55416025D01*
X161435397Y-55803073D01*
X161435397Y-56286882D01*
X161362825Y-56673930D01*
X161290254Y-56867454D01*
X161217682Y-56964216D01*
X161072540Y-57060978D01*
X160927397Y-57060978D01*
X160782254Y-56964216D01*
X160709682Y-56867454D01*
X160637111Y-56673930D01*
X160564540Y-56286882D01*
X160564540Y-55803073D01*
X160637111Y-55416025D01*
X160709682Y-55222501D01*
X160782254Y-55125740D01*
X160927397Y-55028978D01*
X162378825Y-55028978D02*
X162523968Y-55028978D01*
X162669111Y-55125740D01*
X162741682Y-55222501D01*
X162814254Y-55416025D01*
X162886825Y-55803073D01*
X162886825Y-56286882D01*
X162814254Y-56673930D01*
X162741682Y-56867454D01*
X162669111Y-56964216D01*
X162523968Y-57060978D01*
X162378825Y-57060978D01*
X162233682Y-56964216D01*
X162161111Y-56867454D01*
X162088540Y-56673930D01*
X162015968Y-56286882D01*
X162015968Y-55803073D01*
X162088540Y-55416025D01*
X162161111Y-55222501D01*
X162233682Y-55125740D01*
X162378825Y-55028978D01*
X164701111Y-57060978D02*
X164701111Y-55706311D01*
X164701111Y-55899835D02*
X164773682Y-55803073D01*
X164918825Y-55706311D01*
X165136540Y-55706311D01*
X165281682Y-55803073D01*
X165354254Y-55996597D01*
X165354254Y-57060978D01*
X165354254Y-55996597D02*
X165426825Y-55803073D01*
X165571968Y-55706311D01*
X165789682Y-55706311D01*
X165934825Y-55803073D01*
X166007397Y-55996597D01*
X166007397Y-57060978D01*
X166733111Y-57060978D02*
X166733111Y-55706311D01*
X166733111Y-55899835D02*
X166805682Y-55803073D01*
X166950825Y-55706311D01*
X167168540Y-55706311D01*
X167313682Y-55803073D01*
X167386254Y-55996597D01*
X167386254Y-57060978D01*
X167386254Y-55996597D02*
X167458825Y-55803073D01*
X167603968Y-55706311D01*
X167821682Y-55706311D01*
X167966825Y-55803073D01*
X168039397Y-55996597D01*
X168039397Y-57060978D01*
X202982540Y-66477000D02*
X202982540Y-57892120D01*
X119162540Y-66477000D02*
X119162540Y-57892120D01*
X202982540Y-58478540D02*
X169316655Y-58478540D01*
X152828426Y-58478540D02*
X119162540Y-58478540D01*
X202982540Y-58478540D02*
X201856036Y-57892119D01*
X202982540Y-58478540D02*
X201856036Y-59064961D01*
X119162540Y-58478540D02*
X120289044Y-59064961D01*
X119162540Y-58478540D02*
X120289044Y-57892119D01*
D10*
X186528571Y-83383333D02*
X186552380Y-83407142D01*
X186576190Y-83478571D01*
X186576190Y-83526190D01*
X186552380Y-83597619D01*
X186504761Y-83645238D01*
X186457142Y-83669047D01*
X186361904Y-83692857D01*
X186290476Y-83692857D01*
X186195238Y-83669047D01*
X186147619Y-83645238D01*
X186100000Y-83597619D01*
X186076190Y-83526190D01*
X186076190Y-83478571D01*
X186100000Y-83407142D01*
X186123809Y-83383333D01*
X186576190Y-82907142D02*
X186576190Y-83192857D01*
X186576190Y-83050000D02*
X186076190Y-83050000D01*
X186147619Y-83097619D01*
X186195238Y-83145238D01*
X186219047Y-83192857D01*
X190114285Y-83526190D02*
X189828571Y-83526190D01*
X189971428Y-83526190D02*
X189971428Y-83026190D01*
X189923809Y-83097619D01*
X189876190Y-83145238D01*
X189828571Y-83169047D01*
X190423809Y-83026190D02*
X190471428Y-83026190D01*
X190519047Y-83050000D01*
X190542857Y-83073809D01*
X190566666Y-83121428D01*
X190590476Y-83216666D01*
X190590476Y-83335714D01*
X190566666Y-83430952D01*
X190542857Y-83478571D01*
X190519047Y-83502380D01*
X190471428Y-83526190D01*
X190423809Y-83526190D01*
X190376190Y-83502380D01*
X190352380Y-83478571D01*
X190328571Y-83430952D01*
X190304761Y-83335714D01*
X190304761Y-83216666D01*
X190328571Y-83121428D01*
X190352380Y-83073809D01*
X190376190Y-83050000D01*
X190423809Y-83026190D01*
X190804761Y-83192857D02*
X190804761Y-83526190D01*
X190804761Y-83240476D02*
X190828571Y-83216666D01*
X190876190Y-83192857D01*
X190947619Y-83192857D01*
X190995238Y-83216666D01*
X191019047Y-83264285D01*
X191019047Y-83526190D01*
X191423809Y-83264285D02*
X191257142Y-83264285D01*
X191257142Y-83526190D02*
X191257142Y-83026190D01*
X191495238Y-83026190D01*
D13*
X143566666Y-71752380D02*
X143566666Y-72466666D01*
X143519047Y-72609523D01*
X143423809Y-72704761D01*
X143280952Y-72752380D01*
X143185714Y-72752380D01*
X144519047Y-71752380D02*
X144042857Y-71752380D01*
X143995238Y-72228571D01*
X144042857Y-72180952D01*
X144138095Y-72133333D01*
X144376190Y-72133333D01*
X144471428Y-72180952D01*
X144519047Y-72228571D01*
X144566666Y-72323809D01*
X144566666Y-72561904D01*
X144519047Y-72657142D01*
X144471428Y-72704761D01*
X144376190Y-72752380D01*
X144138095Y-72752380D01*
X144042857Y-72704761D01*
X143995238Y-72657142D01*
D10*
X148478571Y-92926190D02*
X148311904Y-92688095D01*
X148192857Y-92926190D02*
X148192857Y-92426190D01*
X148383333Y-92426190D01*
X148430952Y-92450000D01*
X148454761Y-92473809D01*
X148478571Y-92521428D01*
X148478571Y-92592857D01*
X148454761Y-92640476D01*
X148430952Y-92664285D01*
X148383333Y-92688095D01*
X148192857Y-92688095D01*
X148954761Y-92926190D02*
X148669047Y-92926190D01*
X148811904Y-92926190D02*
X148811904Y-92426190D01*
X148764285Y-92497619D01*
X148716666Y-92545238D01*
X148669047Y-92569047D01*
X149145238Y-92473809D02*
X149169047Y-92450000D01*
X149216666Y-92426190D01*
X149335714Y-92426190D01*
X149383333Y-92450000D01*
X149407142Y-92473809D01*
X149430952Y-92521428D01*
X149430952Y-92569047D01*
X149407142Y-92640476D01*
X149121428Y-92926190D01*
X149430952Y-92926190D01*
X148554761Y-96626190D02*
X148269047Y-96626190D01*
X148411904Y-96626190D02*
X148411904Y-96126190D01*
X148364285Y-96197619D01*
X148316666Y-96245238D01*
X148269047Y-96269047D01*
X148864285Y-96126190D02*
X148911904Y-96126190D01*
X148959523Y-96150000D01*
X148983333Y-96173809D01*
X149007142Y-96221428D01*
X149030952Y-96316666D01*
X149030952Y-96435714D01*
X149007142Y-96530952D01*
X148983333Y-96578571D01*
X148959523Y-96602380D01*
X148911904Y-96626190D01*
X148864285Y-96626190D01*
X148816666Y-96602380D01*
X148792857Y-96578571D01*
X148769047Y-96530952D01*
X148745238Y-96435714D01*
X148745238Y-96316666D01*
X148769047Y-96221428D01*
X148792857Y-96173809D01*
X148816666Y-96150000D01*
X148864285Y-96126190D01*
X149245238Y-96626190D02*
X149245238Y-96126190D01*
X149530952Y-96626190D02*
X149316666Y-96340476D01*
X149530952Y-96126190D02*
X149245238Y-96411904D01*
X168566666Y-85178571D02*
X168542857Y-85202380D01*
X168471428Y-85226190D01*
X168423809Y-85226190D01*
X168352380Y-85202380D01*
X168304761Y-85154761D01*
X168280952Y-85107142D01*
X168257142Y-85011904D01*
X168257142Y-84940476D01*
X168280952Y-84845238D01*
X168304761Y-84797619D01*
X168352380Y-84750000D01*
X168423809Y-84726190D01*
X168471428Y-84726190D01*
X168542857Y-84750000D01*
X168566666Y-84773809D01*
X168733333Y-84726190D02*
X169042857Y-84726190D01*
X168876190Y-84916666D01*
X168947619Y-84916666D01*
X168995238Y-84940476D01*
X169019047Y-84964285D01*
X169042857Y-85011904D01*
X169042857Y-85130952D01*
X169019047Y-85178571D01*
X168995238Y-85202380D01*
X168947619Y-85226190D01*
X168804761Y-85226190D01*
X168757142Y-85202380D01*
X168733333Y-85178571D01*
X169976190Y-86326190D02*
X169690476Y-86326190D01*
X169833333Y-86326190D02*
X169833333Y-85826190D01*
X169785714Y-85897619D01*
X169738095Y-85945238D01*
X169690476Y-85969047D01*
X170285714Y-85826190D02*
X170333333Y-85826190D01*
X170380952Y-85850000D01*
X170404761Y-85873809D01*
X170428571Y-85921428D01*
X170452380Y-86016666D01*
X170452380Y-86135714D01*
X170428571Y-86230952D01*
X170404761Y-86278571D01*
X170380952Y-86302380D01*
X170333333Y-86326190D01*
X170285714Y-86326190D01*
X170238095Y-86302380D01*
X170214285Y-86278571D01*
X170190476Y-86230952D01*
X170166666Y-86135714D01*
X170166666Y-86016666D01*
X170190476Y-85921428D01*
X170214285Y-85873809D01*
X170238095Y-85850000D01*
X170285714Y-85826190D01*
X170761904Y-85826190D02*
X170809523Y-85826190D01*
X170857142Y-85850000D01*
X170880952Y-85873809D01*
X170904761Y-85921428D01*
X170928571Y-86016666D01*
X170928571Y-86135714D01*
X170904761Y-86230952D01*
X170880952Y-86278571D01*
X170857142Y-86302380D01*
X170809523Y-86326190D01*
X170761904Y-86326190D01*
X170714285Y-86302380D01*
X170690476Y-86278571D01*
X170666666Y-86230952D01*
X170642857Y-86135714D01*
X170642857Y-86016666D01*
X170666666Y-85921428D01*
X170690476Y-85873809D01*
X170714285Y-85850000D01*
X170761904Y-85826190D01*
X171142857Y-85992857D02*
X171142857Y-86326190D01*
X171142857Y-86040476D02*
X171166666Y-86016666D01*
X171214285Y-85992857D01*
X171285714Y-85992857D01*
X171333333Y-86016666D01*
X171357142Y-86064285D01*
X171357142Y-86326190D01*
X171761904Y-86064285D02*
X171595238Y-86064285D01*
X171595238Y-86326190D02*
X171595238Y-85826190D01*
X171833333Y-85826190D01*
X131816666Y-75426190D02*
X131650000Y-75188095D01*
X131530952Y-75426190D02*
X131530952Y-74926190D01*
X131721428Y-74926190D01*
X131769047Y-74950000D01*
X131792857Y-74973809D01*
X131816666Y-75021428D01*
X131816666Y-75092857D01*
X131792857Y-75140476D01*
X131769047Y-75164285D01*
X131721428Y-75188095D01*
X131530952Y-75188095D01*
X132245238Y-74926190D02*
X132150000Y-74926190D01*
X132102380Y-74950000D01*
X132078571Y-74973809D01*
X132030952Y-75045238D01*
X132007142Y-75140476D01*
X132007142Y-75330952D01*
X132030952Y-75378571D01*
X132054761Y-75402380D01*
X132102380Y-75426190D01*
X132197619Y-75426190D01*
X132245238Y-75402380D01*
X132269047Y-75378571D01*
X132292857Y-75330952D01*
X132292857Y-75211904D01*
X132269047Y-75164285D01*
X132245238Y-75140476D01*
X132197619Y-75116666D01*
X132102380Y-75116666D01*
X132054761Y-75140476D01*
X132030952Y-75164285D01*
X132007142Y-75211904D01*
X127254761Y-75426190D02*
X126969047Y-75426190D01*
X127111904Y-75426190D02*
X127111904Y-74926190D01*
X127064285Y-74997619D01*
X127016666Y-75045238D01*
X126969047Y-75069047D01*
X127564285Y-74926190D02*
X127611904Y-74926190D01*
X127659523Y-74950000D01*
X127683333Y-74973809D01*
X127707142Y-75021428D01*
X127730952Y-75116666D01*
X127730952Y-75235714D01*
X127707142Y-75330952D01*
X127683333Y-75378571D01*
X127659523Y-75402380D01*
X127611904Y-75426190D01*
X127564285Y-75426190D01*
X127516666Y-75402380D01*
X127492857Y-75378571D01*
X127469047Y-75330952D01*
X127445238Y-75235714D01*
X127445238Y-75116666D01*
X127469047Y-75021428D01*
X127492857Y-74973809D01*
X127516666Y-74950000D01*
X127564285Y-74926190D01*
X128230952Y-75426190D02*
X128064285Y-75188095D01*
X127945238Y-75426190D02*
X127945238Y-74926190D01*
X128135714Y-74926190D01*
X128183333Y-74950000D01*
X128207142Y-74973809D01*
X128230952Y-75021428D01*
X128230952Y-75092857D01*
X128207142Y-75140476D01*
X128183333Y-75164285D01*
X128135714Y-75188095D01*
X127945238Y-75188095D01*
X141552380Y-92473809D02*
X141504761Y-92450000D01*
X141457142Y-92402380D01*
X141385714Y-92330952D01*
X141338095Y-92307142D01*
X141290476Y-92307142D01*
X141314285Y-92426190D02*
X141266666Y-92402380D01*
X141219047Y-92354761D01*
X141195238Y-92259523D01*
X141195238Y-92092857D01*
X141219047Y-91997619D01*
X141266666Y-91950000D01*
X141314285Y-91926190D01*
X141409523Y-91926190D01*
X141457142Y-91950000D01*
X141504761Y-91997619D01*
X141528571Y-92092857D01*
X141528571Y-92259523D01*
X141504761Y-92354761D01*
X141457142Y-92402380D01*
X141409523Y-92426190D01*
X141314285Y-92426190D01*
X141719047Y-91973809D02*
X141742857Y-91950000D01*
X141790476Y-91926190D01*
X141909523Y-91926190D01*
X141957142Y-91950000D01*
X141980952Y-91973809D01*
X142004761Y-92021428D01*
X142004761Y-92069047D01*
X141980952Y-92140476D01*
X141695238Y-92426190D01*
X142004761Y-92426190D01*
X141642857Y-94573809D02*
X141666666Y-94550000D01*
X141714285Y-94526190D01*
X141833333Y-94526190D01*
X141880952Y-94550000D01*
X141904761Y-94573809D01*
X141928571Y-94621428D01*
X141928571Y-94669047D01*
X141904761Y-94740476D01*
X141619047Y-95026190D01*
X141928571Y-95026190D01*
X142142857Y-95026190D02*
X142142857Y-94526190D01*
X142428571Y-95026190D01*
X142428571Y-94526190D01*
X142619047Y-94526190D02*
X142928571Y-94526190D01*
X142761904Y-94716666D01*
X142833333Y-94716666D01*
X142880952Y-94740476D01*
X142904761Y-94764285D01*
X142928571Y-94811904D01*
X142928571Y-94930952D01*
X142904761Y-94978571D01*
X142880952Y-95002380D01*
X142833333Y-95026190D01*
X142690476Y-95026190D01*
X142642857Y-95002380D01*
X142619047Y-94978571D01*
X143166666Y-95026190D02*
X143261904Y-95026190D01*
X143309523Y-95002380D01*
X143333333Y-94978571D01*
X143380952Y-94907142D01*
X143404761Y-94811904D01*
X143404761Y-94621428D01*
X143380952Y-94573809D01*
X143357142Y-94550000D01*
X143309523Y-94526190D01*
X143214285Y-94526190D01*
X143166666Y-94550000D01*
X143142857Y-94573809D01*
X143119047Y-94621428D01*
X143119047Y-94740476D01*
X143142857Y-94788095D01*
X143166666Y-94811904D01*
X143214285Y-94835714D01*
X143309523Y-94835714D01*
X143357142Y-94811904D01*
X143380952Y-94788095D01*
X143404761Y-94740476D01*
X143714285Y-94526190D02*
X143761904Y-94526190D01*
X143809523Y-94550000D01*
X143833333Y-94573809D01*
X143857142Y-94621428D01*
X143880952Y-94716666D01*
X143880952Y-94835714D01*
X143857142Y-94930952D01*
X143833333Y-94978571D01*
X143809523Y-95002380D01*
X143761904Y-95026190D01*
X143714285Y-95026190D01*
X143666666Y-95002380D01*
X143642857Y-94978571D01*
X143619047Y-94930952D01*
X143595238Y-94835714D01*
X143595238Y-94716666D01*
X143619047Y-94621428D01*
X143642857Y-94573809D01*
X143666666Y-94550000D01*
X143714285Y-94526190D01*
X144309523Y-94526190D02*
X144214285Y-94526190D01*
X144166666Y-94550000D01*
X144142857Y-94573809D01*
X144095238Y-94645238D01*
X144071428Y-94740476D01*
X144071428Y-94930952D01*
X144095238Y-94978571D01*
X144119047Y-95002380D01*
X144166666Y-95026190D01*
X144261904Y-95026190D01*
X144309523Y-95002380D01*
X144333333Y-94978571D01*
X144357142Y-94930952D01*
X144357142Y-94811904D01*
X144333333Y-94764285D01*
X144309523Y-94740476D01*
X144261904Y-94716666D01*
X144166666Y-94716666D01*
X144119047Y-94740476D01*
X144095238Y-94764285D01*
X144071428Y-94811904D01*
X131816666Y-86026190D02*
X131650000Y-85788095D01*
X131530952Y-86026190D02*
X131530952Y-85526190D01*
X131721428Y-85526190D01*
X131769047Y-85550000D01*
X131792857Y-85573809D01*
X131816666Y-85621428D01*
X131816666Y-85692857D01*
X131792857Y-85740476D01*
X131769047Y-85764285D01*
X131721428Y-85788095D01*
X131530952Y-85788095D01*
X132269047Y-85526190D02*
X132030952Y-85526190D01*
X132007142Y-85764285D01*
X132030952Y-85740476D01*
X132078571Y-85716666D01*
X132197619Y-85716666D01*
X132245238Y-85740476D01*
X132269047Y-85764285D01*
X132292857Y-85811904D01*
X132292857Y-85930952D01*
X132269047Y-85978571D01*
X132245238Y-86002380D01*
X132197619Y-86026190D01*
X132078571Y-86026190D01*
X132030952Y-86002380D01*
X132007142Y-85978571D01*
X127254761Y-85926190D02*
X126969047Y-85926190D01*
X127111904Y-85926190D02*
X127111904Y-85426190D01*
X127064285Y-85497619D01*
X127016666Y-85545238D01*
X126969047Y-85569047D01*
X127564285Y-85426190D02*
X127611904Y-85426190D01*
X127659523Y-85450000D01*
X127683333Y-85473809D01*
X127707142Y-85521428D01*
X127730952Y-85616666D01*
X127730952Y-85735714D01*
X127707142Y-85830952D01*
X127683333Y-85878571D01*
X127659523Y-85902380D01*
X127611904Y-85926190D01*
X127564285Y-85926190D01*
X127516666Y-85902380D01*
X127492857Y-85878571D01*
X127469047Y-85830952D01*
X127445238Y-85735714D01*
X127445238Y-85616666D01*
X127469047Y-85521428D01*
X127492857Y-85473809D01*
X127516666Y-85450000D01*
X127564285Y-85426190D01*
X128230952Y-85926190D02*
X128064285Y-85688095D01*
X127945238Y-85926190D02*
X127945238Y-85426190D01*
X128135714Y-85426190D01*
X128183333Y-85450000D01*
X128207142Y-85473809D01*
X128230952Y-85521428D01*
X128230952Y-85592857D01*
X128207142Y-85640476D01*
X128183333Y-85664285D01*
X128135714Y-85688095D01*
X127945238Y-85688095D01*
X131816666Y-83826190D02*
X131650000Y-83588095D01*
X131530952Y-83826190D02*
X131530952Y-83326190D01*
X131721428Y-83326190D01*
X131769047Y-83350000D01*
X131792857Y-83373809D01*
X131816666Y-83421428D01*
X131816666Y-83492857D01*
X131792857Y-83540476D01*
X131769047Y-83564285D01*
X131721428Y-83588095D01*
X131530952Y-83588095D01*
X132102380Y-83540476D02*
X132054761Y-83516666D01*
X132030952Y-83492857D01*
X132007142Y-83445238D01*
X132007142Y-83421428D01*
X132030952Y-83373809D01*
X132054761Y-83350000D01*
X132102380Y-83326190D01*
X132197619Y-83326190D01*
X132245238Y-83350000D01*
X132269047Y-83373809D01*
X132292857Y-83421428D01*
X132292857Y-83445238D01*
X132269047Y-83492857D01*
X132245238Y-83516666D01*
X132197619Y-83540476D01*
X132102380Y-83540476D01*
X132054761Y-83564285D01*
X132030952Y-83588095D01*
X132007142Y-83635714D01*
X132007142Y-83730952D01*
X132030952Y-83778571D01*
X132054761Y-83802380D01*
X132102380Y-83826190D01*
X132197619Y-83826190D01*
X132245238Y-83802380D01*
X132269047Y-83778571D01*
X132292857Y-83730952D01*
X132292857Y-83635714D01*
X132269047Y-83588095D01*
X132245238Y-83564285D01*
X132197619Y-83540476D01*
X127254761Y-83826190D02*
X126969047Y-83826190D01*
X127111904Y-83826190D02*
X127111904Y-83326190D01*
X127064285Y-83397619D01*
X127016666Y-83445238D01*
X126969047Y-83469047D01*
X127564285Y-83326190D02*
X127611904Y-83326190D01*
X127659523Y-83350000D01*
X127683333Y-83373809D01*
X127707142Y-83421428D01*
X127730952Y-83516666D01*
X127730952Y-83635714D01*
X127707142Y-83730952D01*
X127683333Y-83778571D01*
X127659523Y-83802380D01*
X127611904Y-83826190D01*
X127564285Y-83826190D01*
X127516666Y-83802380D01*
X127492857Y-83778571D01*
X127469047Y-83730952D01*
X127445238Y-83635714D01*
X127445238Y-83516666D01*
X127469047Y-83421428D01*
X127492857Y-83373809D01*
X127516666Y-83350000D01*
X127564285Y-83326190D01*
X128230952Y-83826190D02*
X128064285Y-83588095D01*
X127945238Y-83826190D02*
X127945238Y-83326190D01*
X128135714Y-83326190D01*
X128183333Y-83350000D01*
X128207142Y-83373809D01*
X128230952Y-83421428D01*
X128230952Y-83492857D01*
X128207142Y-83540476D01*
X128183333Y-83564285D01*
X128135714Y-83588095D01*
X127945238Y-83588095D01*
X128076190Y-90869047D02*
X127576190Y-90869047D01*
X127576190Y-90750000D01*
X127600000Y-90678571D01*
X127647619Y-90630952D01*
X127695238Y-90607142D01*
X127790476Y-90583333D01*
X127861904Y-90583333D01*
X127957142Y-90607142D01*
X128004761Y-90630952D01*
X128052380Y-90678571D01*
X128076190Y-90750000D01*
X128076190Y-90869047D01*
X127576190Y-90130952D02*
X127576190Y-90369047D01*
X127814285Y-90392857D01*
X127790476Y-90369047D01*
X127766666Y-90321428D01*
X127766666Y-90202380D01*
X127790476Y-90154761D01*
X127814285Y-90130952D01*
X127861904Y-90107142D01*
X127980952Y-90107142D01*
X128028571Y-90130952D01*
X128052380Y-90154761D01*
X128076190Y-90202380D01*
X128076190Y-90321428D01*
X128052380Y-90369047D01*
X128028571Y-90392857D01*
X129778571Y-92226190D02*
X129492857Y-92226190D01*
X129635714Y-92226190D02*
X129635714Y-91726190D01*
X129588095Y-91797619D01*
X129540476Y-91845238D01*
X129492857Y-91869047D01*
X129992857Y-92226190D02*
X129992857Y-91726190D01*
X130278571Y-92226190D01*
X130278571Y-91726190D01*
X130730952Y-91892857D02*
X130730952Y-92226190D01*
X130611904Y-91702380D02*
X130492857Y-92059523D01*
X130802380Y-92059523D01*
X131254761Y-92226190D02*
X130969047Y-92226190D01*
X131111904Y-92226190D02*
X131111904Y-91726190D01*
X131064285Y-91797619D01*
X131016666Y-91845238D01*
X130969047Y-91869047D01*
X131683333Y-91892857D02*
X131683333Y-92226190D01*
X131564285Y-91702380D02*
X131445238Y-92059523D01*
X131754761Y-92059523D01*
X132016666Y-91940476D02*
X131969047Y-91916666D01*
X131945238Y-91892857D01*
X131921428Y-91845238D01*
X131921428Y-91821428D01*
X131945238Y-91773809D01*
X131969047Y-91750000D01*
X132016666Y-91726190D01*
X132111904Y-91726190D01*
X132159523Y-91750000D01*
X132183333Y-91773809D01*
X132207142Y-91821428D01*
X132207142Y-91845238D01*
X132183333Y-91892857D01*
X132159523Y-91916666D01*
X132111904Y-91940476D01*
X132016666Y-91940476D01*
X131969047Y-91964285D01*
X131945238Y-91988095D01*
X131921428Y-92035714D01*
X131921428Y-92130952D01*
X131945238Y-92178571D01*
X131969047Y-92202380D01*
X132016666Y-92226190D01*
X132111904Y-92226190D01*
X132159523Y-92202380D01*
X132183333Y-92178571D01*
X132207142Y-92130952D01*
X132207142Y-92035714D01*
X132183333Y-91988095D01*
X132159523Y-91964285D01*
X132111904Y-91940476D01*
X139278571Y-92926190D02*
X139111904Y-92688095D01*
X138992857Y-92926190D02*
X138992857Y-92426190D01*
X139183333Y-92426190D01*
X139230952Y-92450000D01*
X139254761Y-92473809D01*
X139278571Y-92521428D01*
X139278571Y-92592857D01*
X139254761Y-92640476D01*
X139230952Y-92664285D01*
X139183333Y-92688095D01*
X138992857Y-92688095D01*
X139754761Y-92926190D02*
X139469047Y-92926190D01*
X139611904Y-92926190D02*
X139611904Y-92426190D01*
X139564285Y-92497619D01*
X139516666Y-92545238D01*
X139469047Y-92569047D01*
X139921428Y-92426190D02*
X140230952Y-92426190D01*
X140064285Y-92616666D01*
X140135714Y-92616666D01*
X140183333Y-92640476D01*
X140207142Y-92664285D01*
X140230952Y-92711904D01*
X140230952Y-92830952D01*
X140207142Y-92878571D01*
X140183333Y-92902380D01*
X140135714Y-92926190D01*
X139992857Y-92926190D01*
X139945238Y-92902380D01*
X139921428Y-92878571D01*
X139254761Y-96626190D02*
X138969047Y-96626190D01*
X139111904Y-96626190D02*
X139111904Y-96126190D01*
X139064285Y-96197619D01*
X139016666Y-96245238D01*
X138969047Y-96269047D01*
X139564285Y-96126190D02*
X139611904Y-96126190D01*
X139659523Y-96150000D01*
X139683333Y-96173809D01*
X139707142Y-96221428D01*
X139730952Y-96316666D01*
X139730952Y-96435714D01*
X139707142Y-96530952D01*
X139683333Y-96578571D01*
X139659523Y-96602380D01*
X139611904Y-96626190D01*
X139564285Y-96626190D01*
X139516666Y-96602380D01*
X139492857Y-96578571D01*
X139469047Y-96530952D01*
X139445238Y-96435714D01*
X139445238Y-96316666D01*
X139469047Y-96221428D01*
X139492857Y-96173809D01*
X139516666Y-96150000D01*
X139564285Y-96126190D01*
X139945238Y-96626190D02*
X139945238Y-96126190D01*
X140230952Y-96626190D02*
X140016666Y-96340476D01*
X140230952Y-96126190D02*
X139945238Y-96411904D01*
X131816666Y-79626190D02*
X131650000Y-79388095D01*
X131530952Y-79626190D02*
X131530952Y-79126190D01*
X131721428Y-79126190D01*
X131769047Y-79150000D01*
X131792857Y-79173809D01*
X131816666Y-79221428D01*
X131816666Y-79292857D01*
X131792857Y-79340476D01*
X131769047Y-79364285D01*
X131721428Y-79388095D01*
X131530952Y-79388095D01*
X132245238Y-79292857D02*
X132245238Y-79626190D01*
X132126190Y-79102380D02*
X132007142Y-79459523D01*
X132316666Y-79459523D01*
X127254761Y-79726190D02*
X126969047Y-79726190D01*
X127111904Y-79726190D02*
X127111904Y-79226190D01*
X127064285Y-79297619D01*
X127016666Y-79345238D01*
X126969047Y-79369047D01*
X127564285Y-79226190D02*
X127611904Y-79226190D01*
X127659523Y-79250000D01*
X127683333Y-79273809D01*
X127707142Y-79321428D01*
X127730952Y-79416666D01*
X127730952Y-79535714D01*
X127707142Y-79630952D01*
X127683333Y-79678571D01*
X127659523Y-79702380D01*
X127611904Y-79726190D01*
X127564285Y-79726190D01*
X127516666Y-79702380D01*
X127492857Y-79678571D01*
X127469047Y-79630952D01*
X127445238Y-79535714D01*
X127445238Y-79416666D01*
X127469047Y-79321428D01*
X127492857Y-79273809D01*
X127516666Y-79250000D01*
X127564285Y-79226190D01*
X128230952Y-79726190D02*
X128064285Y-79488095D01*
X127945238Y-79726190D02*
X127945238Y-79226190D01*
X128135714Y-79226190D01*
X128183333Y-79250000D01*
X128207142Y-79273809D01*
X128230952Y-79321428D01*
X128230952Y-79392857D01*
X128207142Y-79440476D01*
X128183333Y-79464285D01*
X128135714Y-79488095D01*
X127945238Y-79488095D01*
X158019047Y-76176190D02*
X158019047Y-76580952D01*
X158042857Y-76628571D01*
X158066666Y-76652380D01*
X158114285Y-76676190D01*
X158209523Y-76676190D01*
X158257142Y-76652380D01*
X158280952Y-76628571D01*
X158304761Y-76580952D01*
X158304761Y-76176190D01*
X158804761Y-76676190D02*
X158519047Y-76676190D01*
X158661904Y-76676190D02*
X158661904Y-76176190D01*
X158614285Y-76247619D01*
X158566666Y-76295238D01*
X158519047Y-76319047D01*
X160664285Y-87864285D02*
X160497619Y-87864285D01*
X160497619Y-88126190D02*
X160497619Y-87626190D01*
X160735714Y-87626190D01*
X160854761Y-87626190D02*
X161140476Y-87626190D01*
X160997619Y-88126190D02*
X160997619Y-87626190D01*
X161283333Y-87673809D02*
X161307142Y-87650000D01*
X161354761Y-87626190D01*
X161473809Y-87626190D01*
X161521428Y-87650000D01*
X161545238Y-87673809D01*
X161569047Y-87721428D01*
X161569047Y-87769047D01*
X161545238Y-87840476D01*
X161259523Y-88126190D01*
X161569047Y-88126190D01*
X161735714Y-87626190D02*
X162045238Y-87626190D01*
X161878571Y-87816666D01*
X161950000Y-87816666D01*
X161997619Y-87840476D01*
X162021428Y-87864285D01*
X162045238Y-87911904D01*
X162045238Y-88030952D01*
X162021428Y-88078571D01*
X161997619Y-88102380D01*
X161950000Y-88126190D01*
X161807142Y-88126190D01*
X161759523Y-88102380D01*
X161735714Y-88078571D01*
X162235714Y-87673809D02*
X162259523Y-87650000D01*
X162307142Y-87626190D01*
X162426190Y-87626190D01*
X162473809Y-87650000D01*
X162497619Y-87673809D01*
X162521428Y-87721428D01*
X162521428Y-87769047D01*
X162497619Y-87840476D01*
X162211904Y-88126190D01*
X162521428Y-88126190D01*
X163021428Y-88126190D02*
X162854761Y-87888095D01*
X162735714Y-88126190D02*
X162735714Y-87626190D01*
X162926190Y-87626190D01*
X162973809Y-87650000D01*
X162997619Y-87673809D01*
X163021428Y-87721428D01*
X163021428Y-87792857D01*
X162997619Y-87840476D01*
X162973809Y-87864285D01*
X162926190Y-87888095D01*
X162735714Y-87888095D01*
X163473809Y-88126190D02*
X163235714Y-88126190D01*
X163235714Y-87626190D01*
X145678571Y-96526190D02*
X145511904Y-96288095D01*
X145392857Y-96526190D02*
X145392857Y-96026190D01*
X145583333Y-96026190D01*
X145630952Y-96050000D01*
X145654761Y-96073809D01*
X145678571Y-96121428D01*
X145678571Y-96192857D01*
X145654761Y-96240476D01*
X145630952Y-96264285D01*
X145583333Y-96288095D01*
X145392857Y-96288095D01*
X146154761Y-96526190D02*
X145869047Y-96526190D01*
X146011904Y-96526190D02*
X146011904Y-96026190D01*
X145964285Y-96097619D01*
X145916666Y-96145238D01*
X145869047Y-96169047D01*
X146630952Y-96526190D02*
X146345238Y-96526190D01*
X146488095Y-96526190D02*
X146488095Y-96026190D01*
X146440476Y-96097619D01*
X146392857Y-96145238D01*
X146345238Y-96169047D01*
X141307142Y-96073809D02*
X141330952Y-96050000D01*
X141378571Y-96026190D01*
X141497619Y-96026190D01*
X141545238Y-96050000D01*
X141569047Y-96073809D01*
X141592857Y-96121428D01*
X141592857Y-96169047D01*
X141569047Y-96240476D01*
X141283333Y-96526190D01*
X141592857Y-96526190D01*
X141807142Y-96526190D02*
X141807142Y-96026190D01*
X142092857Y-96526190D02*
X141878571Y-96240476D01*
X142092857Y-96026190D02*
X141807142Y-96311904D01*
X186026190Y-85383333D02*
X186026190Y-85621428D01*
X185526190Y-85621428D01*
X186026190Y-84954761D02*
X186026190Y-85240476D01*
X186026190Y-85097619D02*
X185526190Y-85097619D01*
X185597619Y-85145238D01*
X185645238Y-85192857D01*
X185669047Y-85240476D01*
X190116666Y-85426190D02*
X189830952Y-85426190D01*
X189973809Y-85426190D02*
X189973809Y-84926190D01*
X189926190Y-84997619D01*
X189878571Y-85045238D01*
X189830952Y-85069047D01*
X190426190Y-84926190D02*
X190473809Y-84926190D01*
X190521428Y-84950000D01*
X190545238Y-84973809D01*
X190569047Y-85021428D01*
X190592857Y-85116666D01*
X190592857Y-85235714D01*
X190569047Y-85330952D01*
X190545238Y-85378571D01*
X190521428Y-85402380D01*
X190473809Y-85426190D01*
X190426190Y-85426190D01*
X190378571Y-85402380D01*
X190354761Y-85378571D01*
X190330952Y-85330952D01*
X190307142Y-85235714D01*
X190307142Y-85116666D01*
X190330952Y-85021428D01*
X190354761Y-84973809D01*
X190378571Y-84950000D01*
X190426190Y-84926190D01*
X191021428Y-85092857D02*
X191021428Y-85426190D01*
X190807142Y-85092857D02*
X190807142Y-85354761D01*
X190830952Y-85402380D01*
X190878571Y-85426190D01*
X190950000Y-85426190D01*
X190997619Y-85402380D01*
X191021428Y-85378571D01*
X191259523Y-85426190D02*
X191259523Y-84926190D01*
X191259523Y-85164285D02*
X191545238Y-85164285D01*
X191545238Y-85426190D02*
X191545238Y-84926190D01*
X135330952Y-78576190D02*
X135330952Y-78076190D01*
X135450000Y-78076190D01*
X135521428Y-78100000D01*
X135569047Y-78147619D01*
X135592857Y-78195238D01*
X135616666Y-78290476D01*
X135616666Y-78361904D01*
X135592857Y-78457142D01*
X135569047Y-78504761D01*
X135521428Y-78552380D01*
X135450000Y-78576190D01*
X135330952Y-78576190D01*
X135783333Y-78076190D02*
X136092857Y-78076190D01*
X135926190Y-78266666D01*
X135997619Y-78266666D01*
X136045238Y-78290476D01*
X136069047Y-78314285D01*
X136092857Y-78361904D01*
X136092857Y-78480952D01*
X136069047Y-78528571D01*
X136045238Y-78552380D01*
X135997619Y-78576190D01*
X135854761Y-78576190D01*
X135807142Y-78552380D01*
X135783333Y-78528571D01*
X150952380Y-92573809D02*
X150904761Y-92550000D01*
X150857142Y-92502380D01*
X150785714Y-92430952D01*
X150738095Y-92407142D01*
X150690476Y-92407142D01*
X150714285Y-92526190D02*
X150666666Y-92502380D01*
X150619047Y-92454761D01*
X150595238Y-92359523D01*
X150595238Y-92192857D01*
X150619047Y-92097619D01*
X150666666Y-92050000D01*
X150714285Y-92026190D01*
X150809523Y-92026190D01*
X150857142Y-92050000D01*
X150904761Y-92097619D01*
X150928571Y-92192857D01*
X150928571Y-92359523D01*
X150904761Y-92454761D01*
X150857142Y-92502380D01*
X150809523Y-92526190D01*
X150714285Y-92526190D01*
X151404761Y-92526190D02*
X151119047Y-92526190D01*
X151261904Y-92526190D02*
X151261904Y-92026190D01*
X151214285Y-92097619D01*
X151166666Y-92145238D01*
X151119047Y-92169047D01*
X150942857Y-94573809D02*
X150966666Y-94550000D01*
X151014285Y-94526190D01*
X151133333Y-94526190D01*
X151180952Y-94550000D01*
X151204761Y-94573809D01*
X151228571Y-94621428D01*
X151228571Y-94669047D01*
X151204761Y-94740476D01*
X150919047Y-95026190D01*
X151228571Y-95026190D01*
X151442857Y-95026190D02*
X151442857Y-94526190D01*
X151728571Y-95026190D01*
X151728571Y-94526190D01*
X151919047Y-94526190D02*
X152228571Y-94526190D01*
X152061904Y-94716666D01*
X152133333Y-94716666D01*
X152180952Y-94740476D01*
X152204761Y-94764285D01*
X152228571Y-94811904D01*
X152228571Y-94930952D01*
X152204761Y-94978571D01*
X152180952Y-95002380D01*
X152133333Y-95026190D01*
X151990476Y-95026190D01*
X151942857Y-95002380D01*
X151919047Y-94978571D01*
X152466666Y-95026190D02*
X152561904Y-95026190D01*
X152609523Y-95002380D01*
X152633333Y-94978571D01*
X152680952Y-94907142D01*
X152704761Y-94811904D01*
X152704761Y-94621428D01*
X152680952Y-94573809D01*
X152657142Y-94550000D01*
X152609523Y-94526190D01*
X152514285Y-94526190D01*
X152466666Y-94550000D01*
X152442857Y-94573809D01*
X152419047Y-94621428D01*
X152419047Y-94740476D01*
X152442857Y-94788095D01*
X152466666Y-94811904D01*
X152514285Y-94835714D01*
X152609523Y-94835714D01*
X152657142Y-94811904D01*
X152680952Y-94788095D01*
X152704761Y-94740476D01*
X153014285Y-94526190D02*
X153061904Y-94526190D01*
X153109523Y-94550000D01*
X153133333Y-94573809D01*
X153157142Y-94621428D01*
X153180952Y-94716666D01*
X153180952Y-94835714D01*
X153157142Y-94930952D01*
X153133333Y-94978571D01*
X153109523Y-95002380D01*
X153061904Y-95026190D01*
X153014285Y-95026190D01*
X152966666Y-95002380D01*
X152942857Y-94978571D01*
X152919047Y-94930952D01*
X152895238Y-94835714D01*
X152895238Y-94716666D01*
X152919047Y-94621428D01*
X152942857Y-94573809D01*
X152966666Y-94550000D01*
X153014285Y-94526190D01*
X153609523Y-94526190D02*
X153514285Y-94526190D01*
X153466666Y-94550000D01*
X153442857Y-94573809D01*
X153395238Y-94645238D01*
X153371428Y-94740476D01*
X153371428Y-94930952D01*
X153395238Y-94978571D01*
X153419047Y-95002380D01*
X153466666Y-95026190D01*
X153561904Y-95026190D01*
X153609523Y-95002380D01*
X153633333Y-94978571D01*
X153657142Y-94930952D01*
X153657142Y-94811904D01*
X153633333Y-94764285D01*
X153609523Y-94740476D01*
X153561904Y-94716666D01*
X153466666Y-94716666D01*
X153419047Y-94740476D01*
X153395238Y-94764285D01*
X153371428Y-94811904D01*
X172828571Y-73733333D02*
X172852380Y-73757142D01*
X172876190Y-73828571D01*
X172876190Y-73876190D01*
X172852380Y-73947619D01*
X172804761Y-73995238D01*
X172757142Y-74019047D01*
X172661904Y-74042857D01*
X172590476Y-74042857D01*
X172495238Y-74019047D01*
X172447619Y-73995238D01*
X172400000Y-73947619D01*
X172376190Y-73876190D01*
X172376190Y-73828571D01*
X172400000Y-73757142D01*
X172423809Y-73733333D01*
X172542857Y-73304761D02*
X172876190Y-73304761D01*
X172352380Y-73423809D02*
X172709523Y-73542857D01*
X172709523Y-73233333D01*
X170076190Y-75026190D02*
X169790476Y-75026190D01*
X169933333Y-75026190D02*
X169933333Y-74526190D01*
X169885714Y-74597619D01*
X169838095Y-74645238D01*
X169790476Y-74669047D01*
X170385714Y-74526190D02*
X170433333Y-74526190D01*
X170480952Y-74550000D01*
X170504761Y-74573809D01*
X170528571Y-74621428D01*
X170552380Y-74716666D01*
X170552380Y-74835714D01*
X170528571Y-74930952D01*
X170504761Y-74978571D01*
X170480952Y-75002380D01*
X170433333Y-75026190D01*
X170385714Y-75026190D01*
X170338095Y-75002380D01*
X170314285Y-74978571D01*
X170290476Y-74930952D01*
X170266666Y-74835714D01*
X170266666Y-74716666D01*
X170290476Y-74621428D01*
X170314285Y-74573809D01*
X170338095Y-74550000D01*
X170385714Y-74526190D01*
X170861904Y-74526190D02*
X170909523Y-74526190D01*
X170957142Y-74550000D01*
X170980952Y-74573809D01*
X171004761Y-74621428D01*
X171028571Y-74716666D01*
X171028571Y-74835714D01*
X171004761Y-74930952D01*
X170980952Y-74978571D01*
X170957142Y-75002380D01*
X170909523Y-75026190D01*
X170861904Y-75026190D01*
X170814285Y-75002380D01*
X170790476Y-74978571D01*
X170766666Y-74930952D01*
X170742857Y-74835714D01*
X170742857Y-74716666D01*
X170766666Y-74621428D01*
X170790476Y-74573809D01*
X170814285Y-74550000D01*
X170861904Y-74526190D01*
X171242857Y-74692857D02*
X171242857Y-75026190D01*
X171242857Y-74740476D02*
X171266666Y-74716666D01*
X171314285Y-74692857D01*
X171385714Y-74692857D01*
X171433333Y-74716666D01*
X171457142Y-74764285D01*
X171457142Y-75026190D01*
X171861904Y-74764285D02*
X171695238Y-74764285D01*
X171695238Y-75026190D02*
X171695238Y-74526190D01*
X171933333Y-74526190D01*
X194276190Y-84866666D02*
X194633333Y-84866666D01*
X194704761Y-84890476D01*
X194752380Y-84938095D01*
X194776190Y-85009523D01*
X194776190Y-85057142D01*
X194776190Y-84366666D02*
X194776190Y-84652380D01*
X194776190Y-84509523D02*
X194276190Y-84509523D01*
X194347619Y-84557142D01*
X194395238Y-84604761D01*
X194419047Y-84652380D01*
X199326190Y-83071428D02*
X199730952Y-83071428D01*
X199778571Y-83047619D01*
X199802380Y-83023809D01*
X199826190Y-82976190D01*
X199826190Y-82880952D01*
X199802380Y-82833333D01*
X199778571Y-82809523D01*
X199730952Y-82785714D01*
X199326190Y-82785714D01*
X199802380Y-82571428D02*
X199826190Y-82500000D01*
X199826190Y-82380952D01*
X199802380Y-82333333D01*
X199778571Y-82309523D01*
X199730952Y-82285714D01*
X199683333Y-82285714D01*
X199635714Y-82309523D01*
X199611904Y-82333333D01*
X199588095Y-82380952D01*
X199564285Y-82476190D01*
X199540476Y-82523809D01*
X199516666Y-82547619D01*
X199469047Y-82571428D01*
X199421428Y-82571428D01*
X199373809Y-82547619D01*
X199350000Y-82523809D01*
X199326190Y-82476190D01*
X199326190Y-82357142D01*
X199350000Y-82285714D01*
X199564285Y-81904761D02*
X199588095Y-81833333D01*
X199611904Y-81809523D01*
X199659523Y-81785714D01*
X199730952Y-81785714D01*
X199778571Y-81809523D01*
X199802380Y-81833333D01*
X199826190Y-81880952D01*
X199826190Y-82071428D01*
X199326190Y-82071428D01*
X199326190Y-81904761D01*
X199350000Y-81857142D01*
X199373809Y-81833333D01*
X199421428Y-81809523D01*
X199469047Y-81809523D01*
X199516666Y-81833333D01*
X199540476Y-81857142D01*
X199564285Y-81904761D01*
X199564285Y-82071428D01*
X199873809Y-81690476D02*
X199873809Y-81309523D01*
X199564285Y-81023809D02*
X199588095Y-80952380D01*
X199611904Y-80928571D01*
X199659523Y-80904761D01*
X199730952Y-80904761D01*
X199778571Y-80928571D01*
X199802380Y-80952380D01*
X199826190Y-81000000D01*
X199826190Y-81190476D01*
X199326190Y-81190476D01*
X199326190Y-81023809D01*
X199350000Y-80976190D01*
X199373809Y-80952380D01*
X199421428Y-80928571D01*
X199469047Y-80928571D01*
X199516666Y-80952380D01*
X199540476Y-80976190D01*
X199564285Y-81023809D01*
X199564285Y-81190476D01*
X186976190Y-88233333D02*
X186738095Y-88400000D01*
X186976190Y-88519047D02*
X186476190Y-88519047D01*
X186476190Y-88328571D01*
X186500000Y-88280952D01*
X186523809Y-88257142D01*
X186571428Y-88233333D01*
X186642857Y-88233333D01*
X186690476Y-88257142D01*
X186714285Y-88280952D01*
X186738095Y-88328571D01*
X186738095Y-88519047D01*
X186976190Y-87757142D02*
X186976190Y-88042857D01*
X186976190Y-87900000D02*
X186476190Y-87900000D01*
X186547619Y-87947619D01*
X186595238Y-87995238D01*
X186619047Y-88042857D01*
X188069047Y-86992857D02*
X188069047Y-87326190D01*
X187950000Y-86802380D02*
X187830952Y-87159523D01*
X188140476Y-87159523D01*
X188283333Y-86826190D02*
X188616666Y-86826190D01*
X188402380Y-87326190D01*
X188902380Y-86826190D02*
X188950000Y-86826190D01*
X188997619Y-86850000D01*
X189021428Y-86873809D01*
X189045238Y-86921428D01*
X189069047Y-87016666D01*
X189069047Y-87135714D01*
X189045238Y-87230952D01*
X189021428Y-87278571D01*
X188997619Y-87302380D01*
X188950000Y-87326190D01*
X188902380Y-87326190D01*
X188854761Y-87302380D01*
X188830952Y-87278571D01*
X188807142Y-87230952D01*
X188783333Y-87135714D01*
X188783333Y-87016666D01*
X188807142Y-86921428D01*
X188830952Y-86873809D01*
X188854761Y-86850000D01*
X188902380Y-86826190D01*
X196733333Y-88626190D02*
X196733333Y-88983333D01*
X196709523Y-89054761D01*
X196661904Y-89102380D01*
X196590476Y-89126190D01*
X196542857Y-89126190D01*
X196923809Y-88626190D02*
X197233333Y-88626190D01*
X197066666Y-88816666D01*
X197138095Y-88816666D01*
X197185714Y-88840476D01*
X197209523Y-88864285D01*
X197233333Y-88911904D01*
X197233333Y-89030952D01*
X197209523Y-89078571D01*
X197185714Y-89102380D01*
X197138095Y-89126190D01*
X196995238Y-89126190D01*
X196947619Y-89102380D01*
X196923809Y-89078571D01*
X190052380Y-93326190D02*
X190219047Y-93826190D01*
X190385714Y-93326190D01*
X190838095Y-93778571D02*
X190814285Y-93802380D01*
X190742857Y-93826190D01*
X190695238Y-93826190D01*
X190623809Y-93802380D01*
X190576190Y-93754761D01*
X190552380Y-93707142D01*
X190528571Y-93611904D01*
X190528571Y-93540476D01*
X190552380Y-93445238D01*
X190576190Y-93397619D01*
X190623809Y-93350000D01*
X190695238Y-93326190D01*
X190742857Y-93326190D01*
X190814285Y-93350000D01*
X190838095Y-93373809D01*
X191338095Y-93778571D02*
X191314285Y-93802380D01*
X191242857Y-93826190D01*
X191195238Y-93826190D01*
X191123809Y-93802380D01*
X191076190Y-93754761D01*
X191052380Y-93707142D01*
X191028571Y-93611904D01*
X191028571Y-93540476D01*
X191052380Y-93445238D01*
X191076190Y-93397619D01*
X191123809Y-93350000D01*
X191195238Y-93326190D01*
X191242857Y-93326190D01*
X191314285Y-93350000D01*
X191338095Y-93373809D01*
X191552380Y-93826190D02*
X191552380Y-93326190D01*
X191885714Y-93326190D02*
X191980952Y-93326190D01*
X192028571Y-93350000D01*
X192076190Y-93397619D01*
X192100000Y-93492857D01*
X192100000Y-93659523D01*
X192076190Y-93754761D01*
X192028571Y-93802380D01*
X191980952Y-93826190D01*
X191885714Y-93826190D01*
X191838095Y-93802380D01*
X191790476Y-93754761D01*
X191766666Y-93659523D01*
X191766666Y-93492857D01*
X191790476Y-93397619D01*
X191838095Y-93350000D01*
X191885714Y-93326190D01*
X198733333Y-67226190D02*
X198733333Y-67583333D01*
X198709523Y-67654761D01*
X198661904Y-67702380D01*
X198590476Y-67726190D01*
X198542857Y-67726190D01*
X199185714Y-67392857D02*
X199185714Y-67726190D01*
X199066666Y-67202380D02*
X198947619Y-67559523D01*
X199257142Y-67559523D01*
X190219047Y-70776190D02*
X190385714Y-71276190D01*
X190552380Y-70776190D01*
X190814285Y-70776190D02*
X190909523Y-70776190D01*
X190957142Y-70800000D01*
X191004761Y-70847619D01*
X191028571Y-70942857D01*
X191028571Y-71109523D01*
X191004761Y-71204761D01*
X190957142Y-71252380D01*
X190909523Y-71276190D01*
X190814285Y-71276190D01*
X190766666Y-71252380D01*
X190719047Y-71204761D01*
X190695238Y-71109523D01*
X190695238Y-70942857D01*
X190719047Y-70847619D01*
X190766666Y-70800000D01*
X190814285Y-70776190D01*
X191242857Y-70776190D02*
X191242857Y-71180952D01*
X191266666Y-71228571D01*
X191290476Y-71252380D01*
X191338095Y-71276190D01*
X191433333Y-71276190D01*
X191480952Y-71252380D01*
X191504761Y-71228571D01*
X191528571Y-71180952D01*
X191528571Y-70776190D01*
X191695238Y-70776190D02*
X191980952Y-70776190D01*
X191838095Y-71276190D02*
X191838095Y-70776190D01*
X154978571Y-96626190D02*
X154811904Y-96388095D01*
X154692857Y-96626190D02*
X154692857Y-96126190D01*
X154883333Y-96126190D01*
X154930952Y-96150000D01*
X154954761Y-96173809D01*
X154978571Y-96221428D01*
X154978571Y-96292857D01*
X154954761Y-96340476D01*
X154930952Y-96364285D01*
X154883333Y-96388095D01*
X154692857Y-96388095D01*
X155454761Y-96626190D02*
X155169047Y-96626190D01*
X155311904Y-96626190D02*
X155311904Y-96126190D01*
X155264285Y-96197619D01*
X155216666Y-96245238D01*
X155169047Y-96269047D01*
X155764285Y-96126190D02*
X155811904Y-96126190D01*
X155859523Y-96150000D01*
X155883333Y-96173809D01*
X155907142Y-96221428D01*
X155930952Y-96316666D01*
X155930952Y-96435714D01*
X155907142Y-96530952D01*
X155883333Y-96578571D01*
X155859523Y-96602380D01*
X155811904Y-96626190D01*
X155764285Y-96626190D01*
X155716666Y-96602380D01*
X155692857Y-96578571D01*
X155669047Y-96530952D01*
X155645238Y-96435714D01*
X155645238Y-96316666D01*
X155669047Y-96221428D01*
X155692857Y-96173809D01*
X155716666Y-96150000D01*
X155764285Y-96126190D01*
X150607142Y-96173809D02*
X150630952Y-96150000D01*
X150678571Y-96126190D01*
X150797619Y-96126190D01*
X150845238Y-96150000D01*
X150869047Y-96173809D01*
X150892857Y-96221428D01*
X150892857Y-96269047D01*
X150869047Y-96340476D01*
X150583333Y-96626190D01*
X150892857Y-96626190D01*
X151107142Y-96626190D02*
X151107142Y-96126190D01*
X151392857Y-96626190D02*
X151178571Y-96340476D01*
X151392857Y-96126190D02*
X151107142Y-96411904D01*
X186576190Y-81433333D02*
X186338095Y-81600000D01*
X186576190Y-81719047D02*
X186076190Y-81719047D01*
X186076190Y-81528571D01*
X186100000Y-81480952D01*
X186123809Y-81457142D01*
X186171428Y-81433333D01*
X186242857Y-81433333D01*
X186290476Y-81457142D01*
X186314285Y-81480952D01*
X186338095Y-81528571D01*
X186338095Y-81719047D01*
X186076190Y-81266666D02*
X186076190Y-80957142D01*
X186266666Y-81123809D01*
X186266666Y-81052380D01*
X186290476Y-81004761D01*
X186314285Y-80980952D01*
X186361904Y-80957142D01*
X186480952Y-80957142D01*
X186528571Y-80980952D01*
X186552380Y-81004761D01*
X186576190Y-81052380D01*
X186576190Y-81195238D01*
X186552380Y-81242857D01*
X186528571Y-81266666D01*
X190104761Y-81576190D02*
X189819047Y-81576190D01*
X189961904Y-81576190D02*
X189961904Y-81076190D01*
X189914285Y-81147619D01*
X189866666Y-81195238D01*
X189819047Y-81219047D01*
X190414285Y-81076190D02*
X190461904Y-81076190D01*
X190509523Y-81100000D01*
X190533333Y-81123809D01*
X190557142Y-81171428D01*
X190580952Y-81266666D01*
X190580952Y-81385714D01*
X190557142Y-81480952D01*
X190533333Y-81528571D01*
X190509523Y-81552380D01*
X190461904Y-81576190D01*
X190414285Y-81576190D01*
X190366666Y-81552380D01*
X190342857Y-81528571D01*
X190319047Y-81480952D01*
X190295238Y-81385714D01*
X190295238Y-81266666D01*
X190319047Y-81171428D01*
X190342857Y-81123809D01*
X190366666Y-81100000D01*
X190414285Y-81076190D01*
X191080952Y-81576190D02*
X190914285Y-81338095D01*
X190795238Y-81576190D02*
X190795238Y-81076190D01*
X190985714Y-81076190D01*
X191033333Y-81100000D01*
X191057142Y-81123809D01*
X191080952Y-81171428D01*
X191080952Y-81242857D01*
X191057142Y-81290476D01*
X191033333Y-81314285D01*
X190985714Y-81338095D01*
X190795238Y-81338095D01*
X131816666Y-77626190D02*
X131650000Y-77388095D01*
X131530952Y-77626190D02*
X131530952Y-77126190D01*
X131721428Y-77126190D01*
X131769047Y-77150000D01*
X131792857Y-77173809D01*
X131816666Y-77221428D01*
X131816666Y-77292857D01*
X131792857Y-77340476D01*
X131769047Y-77364285D01*
X131721428Y-77388095D01*
X131530952Y-77388095D01*
X132054761Y-77626190D02*
X132150000Y-77626190D01*
X132197619Y-77602380D01*
X132221428Y-77578571D01*
X132269047Y-77507142D01*
X132292857Y-77411904D01*
X132292857Y-77221428D01*
X132269047Y-77173809D01*
X132245238Y-77150000D01*
X132197619Y-77126190D01*
X132102380Y-77126190D01*
X132054761Y-77150000D01*
X132030952Y-77173809D01*
X132007142Y-77221428D01*
X132007142Y-77340476D01*
X132030952Y-77388095D01*
X132054761Y-77411904D01*
X132102380Y-77435714D01*
X132197619Y-77435714D01*
X132245238Y-77411904D01*
X132269047Y-77388095D01*
X132292857Y-77340476D01*
X127254761Y-77526190D02*
X126969047Y-77526190D01*
X127111904Y-77526190D02*
X127111904Y-77026190D01*
X127064285Y-77097619D01*
X127016666Y-77145238D01*
X126969047Y-77169047D01*
X127564285Y-77026190D02*
X127611904Y-77026190D01*
X127659523Y-77050000D01*
X127683333Y-77073809D01*
X127707142Y-77121428D01*
X127730952Y-77216666D01*
X127730952Y-77335714D01*
X127707142Y-77430952D01*
X127683333Y-77478571D01*
X127659523Y-77502380D01*
X127611904Y-77526190D01*
X127564285Y-77526190D01*
X127516666Y-77502380D01*
X127492857Y-77478571D01*
X127469047Y-77430952D01*
X127445238Y-77335714D01*
X127445238Y-77216666D01*
X127469047Y-77121428D01*
X127492857Y-77073809D01*
X127516666Y-77050000D01*
X127564285Y-77026190D01*
X128230952Y-77526190D02*
X128064285Y-77288095D01*
X127945238Y-77526190D02*
X127945238Y-77026190D01*
X128135714Y-77026190D01*
X128183333Y-77050000D01*
X128207142Y-77073809D01*
X128230952Y-77121428D01*
X128230952Y-77192857D01*
X128207142Y-77240476D01*
X128183333Y-77264285D01*
X128135714Y-77288095D01*
X127945238Y-77288095D01*
X186576190Y-79583333D02*
X186338095Y-79750000D01*
X186576190Y-79869047D02*
X186076190Y-79869047D01*
X186076190Y-79678571D01*
X186100000Y-79630952D01*
X186123809Y-79607142D01*
X186171428Y-79583333D01*
X186242857Y-79583333D01*
X186290476Y-79607142D01*
X186314285Y-79630952D01*
X186338095Y-79678571D01*
X186338095Y-79869047D01*
X186123809Y-79392857D02*
X186100000Y-79369047D01*
X186076190Y-79321428D01*
X186076190Y-79202380D01*
X186100000Y-79154761D01*
X186123809Y-79130952D01*
X186171428Y-79107142D01*
X186219047Y-79107142D01*
X186290476Y-79130952D01*
X186576190Y-79416666D01*
X186576190Y-79107142D01*
X190004761Y-79776190D02*
X189719047Y-79776190D01*
X189861904Y-79776190D02*
X189861904Y-79276190D01*
X189814285Y-79347619D01*
X189766666Y-79395238D01*
X189719047Y-79419047D01*
X190314285Y-79276190D02*
X190361904Y-79276190D01*
X190409523Y-79300000D01*
X190433333Y-79323809D01*
X190457142Y-79371428D01*
X190480952Y-79466666D01*
X190480952Y-79585714D01*
X190457142Y-79680952D01*
X190433333Y-79728571D01*
X190409523Y-79752380D01*
X190361904Y-79776190D01*
X190314285Y-79776190D01*
X190266666Y-79752380D01*
X190242857Y-79728571D01*
X190219047Y-79680952D01*
X190195238Y-79585714D01*
X190195238Y-79466666D01*
X190219047Y-79371428D01*
X190242857Y-79323809D01*
X190266666Y-79300000D01*
X190314285Y-79276190D01*
X190980952Y-79776190D02*
X190814285Y-79538095D01*
X190695238Y-79776190D02*
X190695238Y-79276190D01*
X190885714Y-79276190D01*
X190933333Y-79300000D01*
X190957142Y-79323809D01*
X190980952Y-79371428D01*
X190980952Y-79442857D01*
X190957142Y-79490476D01*
X190933333Y-79514285D01*
X190885714Y-79538095D01*
X190695238Y-79538095D01*
X131816666Y-81726190D02*
X131650000Y-81488095D01*
X131530952Y-81726190D02*
X131530952Y-81226190D01*
X131721428Y-81226190D01*
X131769047Y-81250000D01*
X131792857Y-81273809D01*
X131816666Y-81321428D01*
X131816666Y-81392857D01*
X131792857Y-81440476D01*
X131769047Y-81464285D01*
X131721428Y-81488095D01*
X131530952Y-81488095D01*
X131983333Y-81226190D02*
X132316666Y-81226190D01*
X132102380Y-81726190D01*
X127254761Y-81826190D02*
X126969047Y-81826190D01*
X127111904Y-81826190D02*
X127111904Y-81326190D01*
X127064285Y-81397619D01*
X127016666Y-81445238D01*
X126969047Y-81469047D01*
X127564285Y-81326190D02*
X127611904Y-81326190D01*
X127659523Y-81350000D01*
X127683333Y-81373809D01*
X127707142Y-81421428D01*
X127730952Y-81516666D01*
X127730952Y-81635714D01*
X127707142Y-81730952D01*
X127683333Y-81778571D01*
X127659523Y-81802380D01*
X127611904Y-81826190D01*
X127564285Y-81826190D01*
X127516666Y-81802380D01*
X127492857Y-81778571D01*
X127469047Y-81730952D01*
X127445238Y-81635714D01*
X127445238Y-81516666D01*
X127469047Y-81421428D01*
X127492857Y-81373809D01*
X127516666Y-81350000D01*
X127564285Y-81326190D01*
X128230952Y-81826190D02*
X128064285Y-81588095D01*
X127945238Y-81826190D02*
X127945238Y-81326190D01*
X128135714Y-81326190D01*
X128183333Y-81350000D01*
X128207142Y-81373809D01*
X128230952Y-81421428D01*
X128230952Y-81492857D01*
X128207142Y-81540476D01*
X128183333Y-81564285D01*
X128135714Y-81588095D01*
X127945238Y-81588095D01*
X168566666Y-83128571D02*
X168542857Y-83152380D01*
X168471428Y-83176190D01*
X168423809Y-83176190D01*
X168352380Y-83152380D01*
X168304761Y-83104761D01*
X168280952Y-83057142D01*
X168257142Y-82961904D01*
X168257142Y-82890476D01*
X168280952Y-82795238D01*
X168304761Y-82747619D01*
X168352380Y-82700000D01*
X168423809Y-82676190D01*
X168471428Y-82676190D01*
X168542857Y-82700000D01*
X168566666Y-82723809D01*
X168757142Y-82723809D02*
X168780952Y-82700000D01*
X168828571Y-82676190D01*
X168947619Y-82676190D01*
X168995238Y-82700000D01*
X169019047Y-82723809D01*
X169042857Y-82771428D01*
X169042857Y-82819047D01*
X169019047Y-82890476D01*
X168733333Y-83176190D01*
X169042857Y-83176190D01*
X170697619Y-81076190D02*
X170602380Y-81076190D01*
X170554761Y-81100000D01*
X170530952Y-81123809D01*
X170483333Y-81195238D01*
X170459523Y-81290476D01*
X170459523Y-81480952D01*
X170483333Y-81528571D01*
X170507142Y-81552380D01*
X170554761Y-81576190D01*
X170650000Y-81576190D01*
X170697619Y-81552380D01*
X170721428Y-81528571D01*
X170745238Y-81480952D01*
X170745238Y-81361904D01*
X170721428Y-81314285D01*
X170697619Y-81290476D01*
X170650000Y-81266666D01*
X170554761Y-81266666D01*
X170507142Y-81290476D01*
X170483333Y-81314285D01*
X170459523Y-81361904D01*
X170959523Y-81528571D02*
X170983333Y-81552380D01*
X170959523Y-81576190D01*
X170935714Y-81552380D01*
X170959523Y-81528571D01*
X170959523Y-81576190D01*
X171269047Y-81290476D02*
X171221428Y-81266666D01*
X171197619Y-81242857D01*
X171173809Y-81195238D01*
X171173809Y-81171428D01*
X171197619Y-81123809D01*
X171221428Y-81100000D01*
X171269047Y-81076190D01*
X171364285Y-81076190D01*
X171411904Y-81100000D01*
X171435714Y-81123809D01*
X171459523Y-81171428D01*
X171459523Y-81195238D01*
X171435714Y-81242857D01*
X171411904Y-81266666D01*
X171364285Y-81290476D01*
X171269047Y-81290476D01*
X171221428Y-81314285D01*
X171197619Y-81338095D01*
X171173809Y-81385714D01*
X171173809Y-81480952D01*
X171197619Y-81528571D01*
X171221428Y-81552380D01*
X171269047Y-81576190D01*
X171364285Y-81576190D01*
X171411904Y-81552380D01*
X171435714Y-81528571D01*
X171459523Y-81480952D01*
X171459523Y-81385714D01*
X171435714Y-81338095D01*
X171411904Y-81314285D01*
X171364285Y-81290476D01*
X171888095Y-81242857D02*
X171888095Y-81576190D01*
X171673809Y-81242857D02*
X171673809Y-81504761D01*
X171697619Y-81552380D01*
X171745238Y-81576190D01*
X171816666Y-81576190D01*
X171864285Y-81552380D01*
X171888095Y-81528571D01*
X172292857Y-81314285D02*
X172126190Y-81314285D01*
X172126190Y-81576190D02*
X172126190Y-81076190D01*
X172364285Y-81076190D01*
X135280952Y-74376190D02*
X135280952Y-73876190D01*
X135400000Y-73876190D01*
X135471428Y-73900000D01*
X135519047Y-73947619D01*
X135542857Y-73995238D01*
X135566666Y-74090476D01*
X135566666Y-74161904D01*
X135542857Y-74257142D01*
X135519047Y-74304761D01*
X135471428Y-74352380D01*
X135400000Y-74376190D01*
X135280952Y-74376190D01*
X135995238Y-74042857D02*
X135995238Y-74376190D01*
X135876190Y-73852380D02*
X135757142Y-74209523D01*
X136066666Y-74209523D01*
X172386190Y-77400952D02*
X172790952Y-77400952D01*
X172838571Y-77377142D01*
X172862380Y-77353333D01*
X172886190Y-77305714D01*
X172886190Y-77210476D01*
X172862380Y-77162857D01*
X172838571Y-77139047D01*
X172790952Y-77115238D01*
X172386190Y-77115238D01*
X172433809Y-76900952D02*
X172410000Y-76877142D01*
X172386190Y-76829523D01*
X172386190Y-76710476D01*
X172410000Y-76662857D01*
X172433809Y-76639047D01*
X172481428Y-76615238D01*
X172529047Y-76615238D01*
X172600476Y-76639047D01*
X172886190Y-76924761D01*
X172886190Y-76615238D01*
X169136190Y-80139047D02*
X169136190Y-80377142D01*
X168636190Y-80377142D01*
X168636190Y-80020000D02*
X168636190Y-79686666D01*
X169136190Y-79900952D01*
X168850476Y-79424761D02*
X168826666Y-79472380D01*
X168802857Y-79496190D01*
X168755238Y-79520000D01*
X168731428Y-79520000D01*
X168683809Y-79496190D01*
X168660000Y-79472380D01*
X168636190Y-79424761D01*
X168636190Y-79329523D01*
X168660000Y-79281904D01*
X168683809Y-79258095D01*
X168731428Y-79234285D01*
X168755238Y-79234285D01*
X168802857Y-79258095D01*
X168826666Y-79281904D01*
X168850476Y-79329523D01*
X168850476Y-79424761D01*
X168874285Y-79472380D01*
X168898095Y-79496190D01*
X168945714Y-79520000D01*
X169040952Y-79520000D01*
X169088571Y-79496190D01*
X169112380Y-79472380D01*
X169136190Y-79424761D01*
X169136190Y-79329523D01*
X169112380Y-79281904D01*
X169088571Y-79258095D01*
X169040952Y-79234285D01*
X168945714Y-79234285D01*
X168898095Y-79258095D01*
X168874285Y-79281904D01*
X168850476Y-79329523D01*
X169136190Y-78781904D02*
X169136190Y-79020000D01*
X168636190Y-79020000D01*
X168636190Y-78662857D02*
X168636190Y-78353333D01*
X168826666Y-78520000D01*
X168826666Y-78448571D01*
X168850476Y-78400952D01*
X168874285Y-78377142D01*
X168921904Y-78353333D01*
X169040952Y-78353333D01*
X169088571Y-78377142D01*
X169112380Y-78400952D01*
X169136190Y-78448571D01*
X169136190Y-78591428D01*
X169112380Y-78639047D01*
X169088571Y-78662857D01*
X168636190Y-78186666D02*
X168636190Y-77877142D01*
X168826666Y-78043809D01*
X168826666Y-77972380D01*
X168850476Y-77924761D01*
X168874285Y-77900952D01*
X168921904Y-77877142D01*
X169040952Y-77877142D01*
X169088571Y-77900952D01*
X169112380Y-77924761D01*
X169136190Y-77972380D01*
X169136190Y-78115238D01*
X169112380Y-78162857D01*
X169088571Y-78186666D01*
X169183809Y-77781904D02*
X169183809Y-77400952D01*
X168636190Y-77353333D02*
X168636190Y-77067619D01*
X169136190Y-77210476D02*
X168636190Y-77210476D01*
X168636190Y-76805714D02*
X168636190Y-76710476D01*
X168660000Y-76662857D01*
X168707619Y-76615238D01*
X168802857Y-76591428D01*
X168969523Y-76591428D01*
X169064761Y-76615238D01*
X169112380Y-76662857D01*
X169136190Y-76710476D01*
X169136190Y-76805714D01*
X169112380Y-76853333D01*
X169064761Y-76900952D01*
X168969523Y-76924761D01*
X168802857Y-76924761D01*
X168707619Y-76900952D01*
X168660000Y-76853333D01*
X168636190Y-76805714D01*
X169136190Y-76353333D02*
X169136190Y-76258095D01*
X169112380Y-76210476D01*
X169088571Y-76186666D01*
X169017142Y-76139047D01*
X168921904Y-76115238D01*
X168731428Y-76115238D01*
X168683809Y-76139047D01*
X168660000Y-76162857D01*
X168636190Y-76210476D01*
X168636190Y-76305714D01*
X168660000Y-76353333D01*
X168683809Y-76377142D01*
X168731428Y-76400952D01*
X168850476Y-76400952D01*
X168898095Y-76377142D01*
X168921904Y-76353333D01*
X168945714Y-76305714D01*
X168945714Y-76210476D01*
X168921904Y-76162857D01*
X168898095Y-76139047D01*
X168850476Y-76115238D01*
X168683809Y-75924761D02*
X168660000Y-75900952D01*
X168636190Y-75853333D01*
X168636190Y-75734285D01*
X168660000Y-75686666D01*
X168683809Y-75662857D01*
X168731428Y-75639047D01*
X168779047Y-75639047D01*
X168850476Y-75662857D01*
X169136190Y-75948571D01*
X169136190Y-75639047D01*
X135368452Y-82776190D02*
X135368452Y-82276190D01*
X135487500Y-82276190D01*
X135558928Y-82300000D01*
X135606547Y-82347619D01*
X135630357Y-82395238D01*
X135654166Y-82490476D01*
X135654166Y-82561904D01*
X135630357Y-82657142D01*
X135606547Y-82704761D01*
X135558928Y-82752380D01*
X135487500Y-82776190D01*
X135368452Y-82776190D01*
X135844642Y-82323809D02*
X135868452Y-82300000D01*
X135916071Y-82276190D01*
X136035119Y-82276190D01*
X136082738Y-82300000D01*
X136106547Y-82323809D01*
X136130357Y-82371428D01*
X136130357Y-82419047D01*
X136106547Y-82490476D01*
X135820833Y-82776190D01*
X136130357Y-82776190D01*
X127176190Y-93766666D02*
X127533333Y-93766666D01*
X127604761Y-93790476D01*
X127652380Y-93838095D01*
X127676190Y-93909523D01*
X127676190Y-93957142D01*
X127223809Y-93552380D02*
X127200000Y-93528571D01*
X127176190Y-93480952D01*
X127176190Y-93361904D01*
X127200000Y-93314285D01*
X127223809Y-93290476D01*
X127271428Y-93266666D01*
X127319047Y-93266666D01*
X127390476Y-93290476D01*
X127676190Y-93576190D01*
X127676190Y-93266666D01*
X127176190Y-96683333D02*
X127533333Y-96683333D01*
X127604761Y-96707142D01*
X127652380Y-96754761D01*
X127676190Y-96826190D01*
X127676190Y-96873809D01*
X127176190Y-96516666D02*
X127176190Y-96230952D01*
X127676190Y-96373809D02*
X127176190Y-96373809D01*
X127533333Y-96088095D02*
X127533333Y-95850000D01*
X127676190Y-96135714D02*
X127176190Y-95969047D01*
X127676190Y-95802380D01*
X127200000Y-95373809D02*
X127176190Y-95421428D01*
X127176190Y-95492857D01*
X127200000Y-95564285D01*
X127247619Y-95611904D01*
X127295238Y-95635714D01*
X127390476Y-95659523D01*
X127461904Y-95659523D01*
X127557142Y-95635714D01*
X127604761Y-95611904D01*
X127652380Y-95564285D01*
X127676190Y-95492857D01*
X127676190Y-95445238D01*
X127652380Y-95373809D01*
X127628571Y-95350000D01*
X127461904Y-95350000D01*
X127461904Y-95445238D01*
X190676190Y-88569047D02*
X190176190Y-88569047D01*
X190176190Y-88450000D01*
X190200000Y-88378571D01*
X190247619Y-88330952D01*
X190295238Y-88307142D01*
X190390476Y-88283333D01*
X190461904Y-88283333D01*
X190557142Y-88307142D01*
X190604761Y-88330952D01*
X190652380Y-88378571D01*
X190676190Y-88450000D01*
X190676190Y-88569047D01*
X190676190Y-87807142D02*
X190676190Y-88092857D01*
X190676190Y-87950000D02*
X190176190Y-87950000D01*
X190247619Y-87997619D01*
X190295238Y-88045238D01*
X190319047Y-88092857D01*
X191383333Y-86826190D02*
X191550000Y-87326190D01*
X191716666Y-86826190D01*
X192050000Y-87064285D02*
X192121428Y-87088095D01*
X192145238Y-87111904D01*
X192169047Y-87159523D01*
X192169047Y-87230952D01*
X192145238Y-87278571D01*
X192121428Y-87302380D01*
X192073809Y-87326190D01*
X191883333Y-87326190D01*
X191883333Y-86826190D01*
X192050000Y-86826190D01*
X192097619Y-86850000D01*
X192121428Y-86873809D01*
X192145238Y-86921428D01*
X192145238Y-86969047D01*
X192121428Y-87016666D01*
X192097619Y-87040476D01*
X192050000Y-87064285D01*
X191883333Y-87064285D01*
X192383333Y-86826190D02*
X192383333Y-87230952D01*
X192407142Y-87278571D01*
X192430952Y-87302380D01*
X192478571Y-87326190D01*
X192573809Y-87326190D01*
X192621428Y-87302380D01*
X192645238Y-87278571D01*
X192669047Y-87230952D01*
X192669047Y-86826190D01*
X192883333Y-87302380D02*
X192954761Y-87326190D01*
X193073809Y-87326190D01*
X193121428Y-87302380D01*
X193145238Y-87278571D01*
X193169047Y-87230952D01*
X193169047Y-87183333D01*
X193145238Y-87135714D01*
X193121428Y-87111904D01*
X193073809Y-87088095D01*
X192978571Y-87064285D01*
X192930952Y-87040476D01*
X192907142Y-87016666D01*
X192883333Y-86969047D01*
X192883333Y-86921428D01*
X192907142Y-86873809D01*
X192930952Y-86850000D01*
X192978571Y-86826190D01*
X193097619Y-86826190D01*
X193169047Y-86850000D01*
D14*
X188290580Y-82790000D02*
X188009420Y-82790000D01*
X188290580Y-83810000D02*
X188009420Y-83810000D01*
X145295000Y-72505000D02*
X145295000Y-71175000D01*
X158115000Y-72505000D02*
X158115000Y-67305000D01*
X147895000Y-72505000D02*
X147895000Y-69905000D01*
X145295000Y-67305000D02*
X158115000Y-67305000D01*
X147895000Y-69905000D02*
X145295000Y-69905000D01*
X145295000Y-69905000D02*
X145295000Y-67305000D01*
X147895000Y-72505000D02*
X158115000Y-72505000D01*
X146625000Y-72505000D02*
X145295000Y-72505000D01*
X149422500Y-94737258D02*
X149422500Y-94262742D01*
X148377500Y-94737258D02*
X148377500Y-94262742D01*
X170559420Y-84440000D02*
X170840580Y-84440000D01*
X170559420Y-85460000D02*
X170840580Y-85460000D01*
X129662742Y-74677500D02*
X130137258Y-74677500D01*
X129662742Y-75722500D02*
X130137258Y-75722500D01*
X141200000Y-95310000D02*
X144800000Y-95310000D01*
X143000000Y-90859999D02*
G75*
G03*
X141161522Y-95298478I0J-2600001D01*
G01*
X144838478Y-95298478D02*
G75*
G03*
X143000000Y-90860000I-1838478J1838478D01*
G01*
X129662742Y-85177500D02*
X130137258Y-85177500D01*
X129662742Y-86222500D02*
X130137258Y-86222500D01*
X129662742Y-83077500D02*
X130137258Y-83077500D01*
X129662742Y-84122500D02*
X130137258Y-84122500D01*
X132650000Y-89500000D02*
X128350000Y-89500000D01*
X128350000Y-91500000D02*
X132650000Y-91500000D01*
X128350000Y-89500000D02*
X128350000Y-91500000D01*
X139077500Y-94737258D02*
X139077500Y-94262742D01*
X140122500Y-94737258D02*
X140122500Y-94262742D01*
X129662742Y-79922500D02*
X130137258Y-79922500D01*
X129662742Y-78877500D02*
X130137258Y-78877500D01*
D13*
X159225000Y-77250000D02*
X157625000Y-77250000D01*
X164975000Y-87325000D02*
X164975000Y-86675000D01*
X159225000Y-87325000D02*
X159225000Y-86675000D01*
X164975000Y-76675000D02*
X164975000Y-77325000D01*
X159225000Y-87325000D02*
X164975000Y-87325000D01*
X159225000Y-76675000D02*
X164975000Y-76675000D01*
X159225000Y-76675000D02*
X159225000Y-77250000D01*
D14*
X144037258Y-95777500D02*
X143562742Y-95777500D01*
X144037258Y-96822500D02*
X143562742Y-96822500D01*
X188299622Y-84740000D02*
X187500378Y-84740000D01*
X188299622Y-85860000D02*
X187500378Y-85860000D01*
X137000000Y-78790000D02*
X135325000Y-78790000D01*
X137000000Y-81910000D02*
X137650000Y-81910000D01*
X137000000Y-78790000D02*
X137650000Y-78790000D01*
X137000000Y-81910000D02*
X136350000Y-81910000D01*
X150500000Y-95310000D02*
X154100000Y-95310000D01*
X154138478Y-95298478D02*
G75*
G03*
X152300000Y-90860000I-1838478J1838478D01*
G01*
X152300000Y-90859999D02*
G75*
G03*
X150461522Y-95298478I0J-2600001D01*
G01*
X170709420Y-74210000D02*
X170990580Y-74210000D01*
X170709420Y-73190000D02*
X170990580Y-73190000D01*
X195015000Y-84050000D02*
X194425000Y-84050000D01*
X202825000Y-85960000D02*
X204485000Y-85960000D01*
X204485000Y-85960000D02*
X204485000Y-78040000D01*
X204485000Y-78040000D02*
X202825000Y-78040000D01*
X195015000Y-79950000D02*
X195015000Y-78800000D01*
X194425000Y-84050000D02*
X194425000Y-83350000D01*
X199925000Y-85960000D02*
X197325000Y-85960000D01*
X195015000Y-85200000D02*
X195015000Y-84050000D01*
X197325000Y-78040000D02*
X199925000Y-78040000D01*
X188787258Y-88722500D02*
X188312742Y-88722500D01*
X188787258Y-87677500D02*
X188312742Y-87677500D01*
X195565000Y-97385000D02*
X198225000Y-97385000D01*
X195565000Y-89645000D02*
X195565000Y-97385000D01*
X204225000Y-93895000D02*
X198225000Y-93895000D01*
X198225000Y-91135000D02*
X204225000Y-91135000D01*
X198225000Y-97385000D02*
X198225000Y-89645000D01*
X198225000Y-90775000D02*
X204225000Y-90775000D01*
X204225000Y-95675000D02*
X204225000Y-96435000D01*
X204225000Y-91355000D02*
X198225000Y-91355000D01*
X192855000Y-90975000D02*
X192855000Y-89705000D01*
X198225000Y-89645000D02*
X195565000Y-89645000D01*
X195167929Y-95675000D02*
X195565000Y-95675000D01*
X198225000Y-90895000D02*
X204225000Y-90895000D01*
X195167929Y-93895000D02*
X195565000Y-93895000D01*
X195167929Y-93135000D02*
X195565000Y-93135000D01*
X198225000Y-90655000D02*
X204225000Y-90655000D01*
X204225000Y-90595000D02*
X204225000Y-91355000D01*
X195565000Y-92245000D02*
X198225000Y-92245000D01*
X195235000Y-91355000D02*
X195565000Y-91355000D01*
X198225000Y-91255000D02*
X204225000Y-91255000D01*
X195235000Y-90595000D02*
X195565000Y-90595000D01*
X195167929Y-96435000D02*
X195565000Y-96435000D01*
X204225000Y-96435000D02*
X198225000Y-96435000D01*
X195565000Y-94785000D02*
X198225000Y-94785000D01*
X198225000Y-91015000D02*
X204225000Y-91015000D01*
X198225000Y-95675000D02*
X204225000Y-95675000D01*
X204225000Y-93135000D02*
X204225000Y-93895000D01*
X192855000Y-89705000D02*
X194125000Y-89705000D01*
X198225000Y-93135000D02*
X204225000Y-93135000D01*
X198225000Y-90595000D02*
X204225000Y-90595000D01*
X195565000Y-72285000D02*
X198225000Y-72285000D01*
X204225000Y-68855000D02*
X198225000Y-68855000D01*
X198225000Y-68515000D02*
X204225000Y-68515000D01*
X204225000Y-70635000D02*
X204225000Y-71395000D01*
X204225000Y-71395000D02*
X198225000Y-71395000D01*
X192855000Y-67205000D02*
X194125000Y-67205000D01*
X198225000Y-68155000D02*
X204225000Y-68155000D01*
X192855000Y-68475000D02*
X192855000Y-67205000D01*
X195565000Y-69745000D02*
X198225000Y-69745000D01*
X204225000Y-73935000D02*
X198225000Y-73935000D01*
X198225000Y-68635000D02*
X204225000Y-68635000D01*
X198225000Y-68755000D02*
X204225000Y-68755000D01*
X204225000Y-73175000D02*
X204225000Y-73935000D01*
X198225000Y-68095000D02*
X204225000Y-68095000D01*
X198225000Y-67145000D02*
X195565000Y-67145000D01*
X198225000Y-74885000D02*
X198225000Y-67145000D01*
X198225000Y-70635000D02*
X204225000Y-70635000D01*
X204225000Y-68095000D02*
X204225000Y-68855000D01*
X195167929Y-71395000D02*
X195565000Y-71395000D01*
X195167929Y-73175000D02*
X195565000Y-73175000D01*
X198225000Y-73175000D02*
X204225000Y-73175000D01*
X195565000Y-74885000D02*
X198225000Y-74885000D01*
X198225000Y-68275000D02*
X204225000Y-68275000D01*
X195167929Y-73935000D02*
X195565000Y-73935000D01*
X195565000Y-67145000D02*
X195565000Y-74885000D01*
X195235000Y-68095000D02*
X195565000Y-68095000D01*
X195167929Y-70635000D02*
X195565000Y-70635000D01*
X195235000Y-68855000D02*
X195565000Y-68855000D01*
X198225000Y-68395000D02*
X204225000Y-68395000D01*
X153337258Y-95777500D02*
X152862742Y-95777500D01*
X153337258Y-96822500D02*
X152862742Y-96822500D01*
X187912742Y-81872500D02*
X188387258Y-81872500D01*
X187912742Y-80827500D02*
X188387258Y-80827500D01*
X129662742Y-77822500D02*
X130137258Y-77822500D01*
X129662742Y-76777500D02*
X130137258Y-76777500D01*
X187862742Y-80022500D02*
X188337258Y-80022500D01*
X187862742Y-78977500D02*
X188337258Y-78977500D01*
X129662742Y-80977500D02*
X130137258Y-80977500D01*
X129662742Y-82022500D02*
X130137258Y-82022500D01*
X169240000Y-81865000D02*
X169240000Y-83735000D01*
X173150000Y-81865000D02*
X169240000Y-81865000D01*
X169240000Y-83735000D02*
X173150000Y-83735000D01*
X136950000Y-74590000D02*
X135275000Y-74590000D01*
X136950000Y-77710000D02*
X136300000Y-77710000D01*
X136950000Y-74590000D02*
X137600000Y-74590000D01*
X136950000Y-77710000D02*
X137600000Y-77710000D01*
X169450000Y-76220000D02*
X169450000Y-79820000D01*
X173900001Y-78020000D02*
G75*
G03*
X169461522Y-76181522I-2600001J0D01*
G01*
X169461522Y-79858478D02*
G75*
G03*
X173900000Y-78020000I1838478J1838478D01*
G01*
X137000000Y-82990000D02*
X137650000Y-82990000D01*
X137000000Y-86110000D02*
X137650000Y-86110000D01*
X137000000Y-82990000D02*
X135325000Y-82990000D01*
X137000000Y-86110000D02*
X136350000Y-86110000D01*
X114050331Y-66725000D02*
X126390331Y-66725000D01*
X127284669Y-88000000D02*
X126851656Y-87750000D01*
X126390331Y-66725000D02*
X126390331Y-97695000D01*
X127284669Y-87500000D02*
X127284669Y-88000000D01*
X126390331Y-97695000D02*
X114050331Y-97695000D01*
X126851656Y-87750000D02*
X127284669Y-87500000D01*
X190865000Y-88985000D02*
X193150000Y-88985000D01*
X193150000Y-87515000D02*
X190865000Y-87515000D01*
X190865000Y-87515000D02*
X190865000Y-88985000D01*
M02*
