M48
; DRILL file {KiCad 6.99.0-a9ca49a600~144~ubuntu20.04.1} date Tue 01 Mar 2022 02:01:33 AM
; FORMAT={-:-/ absolute / inch / decimal}
; #@! TF.CreationDate,2022-03-01T02:01:33-05:00
; #@! TF.GenerationSoftware,Kicad,Pcbnew,6.99.0-a9ca49a600~144~ubuntu20.04.1
; #@! TF.FileFunction,Plated,1,2,PTH
FMAT,2
INCH
; #@! TA.AperFunction,Plated,PTH,ViaDrill
T1C0.0157
; #@! TA.AperFunction,Plated,PTH,ComponentDrill
T2C0.0295
; #@! TA.AperFunction,Plated,PTH,ComponentDrill
T3C0.0394
; #@! TA.AperFunction,Plated,PTH,ComponentDrill
T4C0.1260
%
G90
G05
T1
X4.8819Y-2.8819
X5.189Y-3.3228
X5.2638Y-3.2028
X5.2657Y-2.9606
X5.3031Y-3.1614
X5.437Y-2.7165
X5.4528Y-3.752
X5.4882Y-3.3307
X5.4882Y-3.622
X5.5315Y-3.0315
X5.7008Y-3.374
X5.7362Y-3.752
X5.7402Y-3.2047
X5.8071Y-3.1142
X5.8189Y-3.622
X5.8425Y-3.2008
X5.9488Y-3.248
X6.0866Y-2.9606
X6.1102Y-3.7559
X6.122Y-3.0866
X6.1575Y-3.189
X6.1654Y-3.2913
X6.2008Y-2.9646
X6.3031Y-3.4213
X6.3248Y-3.1398
X6.3307Y-2.9252
X6.3307Y-3.3937
X6.3622Y-3.3661
X6.5984Y-3.1693
X6.5984Y-3.4114
X6.6024Y-3.2165
X6.6398Y-3.3917
X7.2441Y-3.6142
X7.2717Y-3.3533
X7.311Y-3.1378
X7.311Y-3.2047
X7.315Y-3.313
X7.4882Y-3.6339
T2
X5.5799Y-3.6795
X5.6299Y-3.6795
X5.6799Y-3.6795
X5.9461Y-3.6795
X5.9961Y-3.6795
X6.0461Y-3.6795
X6.7441Y-3.0217
X6.7441Y-3.0717
X6.7441Y-3.1217
T3
X4.791Y-3.073
X4.791Y-3.1821
X4.791Y-3.2911
X4.791Y-3.4002
X4.9028Y-3.0185
X4.9028Y-3.1276
X4.9028Y-3.2366
X4.9028Y-3.3457
X4.9028Y-3.4547
X5.7726Y-2.7022
X5.7726Y-2.8022
X5.8726Y-2.7022
X5.8726Y-2.8022
X5.9726Y-2.7022
X5.9726Y-2.8022
X6.0726Y-2.7022
X6.0726Y-2.8022
X6.1726Y-2.7022
X6.1726Y-2.8022
X7.6427Y-2.6959
X7.6427Y-2.7959
X7.6427Y-2.8959
X7.6427Y-3.5817
X7.6427Y-3.6817
X7.6427Y-3.7817
T4
X4.8469Y-2.7445
X4.8469Y-3.7287
T0
M30
