G04 #@! TF.GenerationSoftware,KiCad,Pcbnew,6.99.0-a9ca49a600~144~ubuntu20.04.1*
G04 #@! TF.CreationDate,2022-03-01T02:01:25-05:00*
G04 #@! TF.ProjectId,pa-jtag,70612d6a-7461-4672-9e6b-696361645f70,rev?*
G04 #@! TF.SameCoordinates,Original*
G04 #@! TF.FileFunction,Legend,Bot*
G04 #@! TF.FilePolarity,Positive*
%FSLAX46Y46*%
G04 Gerber Fmt 4.6, Leading zero omitted, Abs format (unit mm)*
G04 Created by KiCad (PCBNEW 6.99.0-a9ca49a600~144~ubuntu20.04.1) date 2022-03-01 02:01:25*
%MOMM*%
%LPD*%
G01*
G04 APERTURE LIST*
%ADD10C,0.076200*%
G04 APERTURE END LIST*
D10*
X119921809Y-85404952D02*
X120429809Y-85574285D01*
X119921809Y-85743619D01*
X119921809Y-86009714D02*
X119921809Y-86106476D01*
X119946000Y-86154857D01*
X119994380Y-86203238D01*
X120091142Y-86227428D01*
X120260476Y-86227428D01*
X120357238Y-86203238D01*
X120405619Y-86154857D01*
X120429809Y-86106476D01*
X120429809Y-86009714D01*
X120405619Y-85961333D01*
X120357238Y-85912952D01*
X120260476Y-85888761D01*
X120091142Y-85888761D01*
X119994380Y-85912952D01*
X119946000Y-85961333D01*
X119921809Y-86009714D01*
X119921809Y-86445142D02*
X120333047Y-86445142D01*
X120381428Y-86469333D01*
X120405619Y-86493523D01*
X120429809Y-86541904D01*
X120429809Y-86638666D01*
X120405619Y-86687047D01*
X120381428Y-86711238D01*
X120333047Y-86735428D01*
X119921809Y-86735428D01*
X119921809Y-86904761D02*
X119921809Y-87195047D01*
X120429809Y-87049904D02*
X119921809Y-87049904D01*
X125521809Y-84379904D02*
X125521809Y-84670190D01*
X126029809Y-84525047D02*
X125521809Y-84525047D01*
X126029809Y-84839523D02*
X125521809Y-84839523D01*
X125521809Y-84960476D01*
X125546000Y-85033047D01*
X125594380Y-85081428D01*
X125642761Y-85105619D01*
X125739523Y-85129809D01*
X125812095Y-85129809D01*
X125908857Y-85105619D01*
X125957238Y-85081428D01*
X126005619Y-85033047D01*
X126029809Y-84960476D01*
X126029809Y-84839523D01*
X126029809Y-85347523D02*
X125521809Y-85347523D01*
X120405619Y-79965428D02*
X120429809Y-80038000D01*
X120429809Y-80158952D01*
X120405619Y-80207333D01*
X120381428Y-80231523D01*
X120333047Y-80255714D01*
X120284666Y-80255714D01*
X120236285Y-80231523D01*
X120212095Y-80207333D01*
X120187904Y-80158952D01*
X120163714Y-80062190D01*
X120139523Y-80013809D01*
X120115333Y-79989619D01*
X120066952Y-79965428D01*
X120018571Y-79965428D01*
X119970190Y-79989619D01*
X119946000Y-80013809D01*
X119921809Y-80062190D01*
X119921809Y-80183142D01*
X119946000Y-80255714D01*
X120429809Y-80763714D02*
X120187904Y-80594380D01*
X120429809Y-80473428D02*
X119921809Y-80473428D01*
X119921809Y-80666952D01*
X119946000Y-80715333D01*
X119970190Y-80739523D01*
X120018571Y-80763714D01*
X120091142Y-80763714D01*
X120139523Y-80739523D01*
X120163714Y-80715333D01*
X120187904Y-80666952D01*
X120187904Y-80473428D01*
X120405619Y-80957238D02*
X120429809Y-81029809D01*
X120429809Y-81150761D01*
X120405619Y-81199142D01*
X120381428Y-81223333D01*
X120333047Y-81247523D01*
X120284666Y-81247523D01*
X120236285Y-81223333D01*
X120212095Y-81199142D01*
X120187904Y-81150761D01*
X120163714Y-81054000D01*
X120139523Y-81005619D01*
X120115333Y-80981428D01*
X120066952Y-80957238D01*
X120018571Y-80957238D01*
X119970190Y-80981428D01*
X119946000Y-81005619D01*
X119921809Y-81054000D01*
X119921809Y-81174952D01*
X119946000Y-81247523D01*
X119921809Y-81392666D02*
X119921809Y-81682952D01*
X120429809Y-81537809D02*
X119921809Y-81537809D01*
X125621809Y-86321142D02*
X126129809Y-86490476D01*
X125621809Y-86659809D01*
X126105619Y-86804952D02*
X126129809Y-86877523D01*
X126129809Y-86998476D01*
X126105619Y-87046857D01*
X126081428Y-87071047D01*
X126033047Y-87095238D01*
X125984666Y-87095238D01*
X125936285Y-87071047D01*
X125912095Y-87046857D01*
X125887904Y-86998476D01*
X125863714Y-86901714D01*
X125839523Y-86853333D01*
X125815333Y-86829142D01*
X125766952Y-86804952D01*
X125718571Y-86804952D01*
X125670190Y-86829142D01*
X125646000Y-86853333D01*
X125621809Y-86901714D01*
X125621809Y-87022666D01*
X125646000Y-87095238D01*
X125863714Y-87312952D02*
X125863714Y-87482285D01*
X126129809Y-87554857D02*
X126129809Y-87312952D01*
X125621809Y-87312952D01*
X125621809Y-87554857D01*
X126129809Y-87772571D02*
X125621809Y-87772571D01*
X126129809Y-88062857D01*
X125621809Y-88062857D01*
X126105619Y-88280571D02*
X126129809Y-88353142D01*
X126129809Y-88474095D01*
X126105619Y-88522476D01*
X126081428Y-88546666D01*
X126033047Y-88570857D01*
X125984666Y-88570857D01*
X125936285Y-88546666D01*
X125912095Y-88522476D01*
X125887904Y-88474095D01*
X125863714Y-88377333D01*
X125839523Y-88328952D01*
X125815333Y-88304761D01*
X125766952Y-88280571D01*
X125718571Y-88280571D01*
X125670190Y-88304761D01*
X125646000Y-88328952D01*
X125621809Y-88377333D01*
X125621809Y-88498285D01*
X125646000Y-88570857D01*
X125863714Y-88788571D02*
X125863714Y-88957904D01*
X126129809Y-89030476D02*
X126129809Y-88788571D01*
X125621809Y-88788571D01*
X125621809Y-89030476D01*
X125621809Y-78646857D02*
X125621809Y-78937142D01*
X126129809Y-78792000D02*
X125621809Y-78792000D01*
X126081428Y-79396761D02*
X126105619Y-79372571D01*
X126129809Y-79300000D01*
X126129809Y-79251619D01*
X126105619Y-79179047D01*
X126057238Y-79130666D01*
X126008857Y-79106476D01*
X125912095Y-79082285D01*
X125839523Y-79082285D01*
X125742761Y-79106476D01*
X125694380Y-79130666D01*
X125646000Y-79179047D01*
X125621809Y-79251619D01*
X125621809Y-79300000D01*
X125646000Y-79372571D01*
X125670190Y-79396761D01*
X126129809Y-79614476D02*
X125621809Y-79614476D01*
X126129809Y-79904761D02*
X125839523Y-79687047D01*
X125621809Y-79904761D02*
X125912095Y-79614476D01*
X119921809Y-82665428D02*
X119921809Y-82955714D01*
X120429809Y-82810571D02*
X119921809Y-82810571D01*
X120429809Y-83415333D02*
X120187904Y-83246000D01*
X120429809Y-83125047D02*
X119921809Y-83125047D01*
X119921809Y-83318571D01*
X119946000Y-83366952D01*
X119970190Y-83391142D01*
X120018571Y-83415333D01*
X120091142Y-83415333D01*
X120139523Y-83391142D01*
X120163714Y-83366952D01*
X120187904Y-83318571D01*
X120187904Y-83125047D01*
X120405619Y-83608857D02*
X120429809Y-83681428D01*
X120429809Y-83802380D01*
X120405619Y-83850761D01*
X120381428Y-83874952D01*
X120333047Y-83899142D01*
X120284666Y-83899142D01*
X120236285Y-83874952D01*
X120212095Y-83850761D01*
X120187904Y-83802380D01*
X120163714Y-83705619D01*
X120139523Y-83657238D01*
X120115333Y-83633047D01*
X120066952Y-83608857D01*
X120018571Y-83608857D01*
X119970190Y-83633047D01*
X119946000Y-83657238D01*
X119921809Y-83705619D01*
X119921809Y-83826571D01*
X119946000Y-83899142D01*
X119921809Y-84044285D02*
X119921809Y-84334571D01*
X120429809Y-84189428D02*
X119921809Y-84189428D01*
X125621809Y-81522666D02*
X125621809Y-81812952D01*
X126129809Y-81667809D02*
X125621809Y-81667809D01*
X126129809Y-81982285D02*
X125621809Y-81982285D01*
X125984666Y-82151619D01*
X125621809Y-82320952D01*
X126129809Y-82320952D01*
X126105619Y-82538666D02*
X126129809Y-82611238D01*
X126129809Y-82732190D01*
X126105619Y-82780571D01*
X126081428Y-82804761D01*
X126033047Y-82828952D01*
X125984666Y-82828952D01*
X125936285Y-82804761D01*
X125912095Y-82780571D01*
X125887904Y-82732190D01*
X125863714Y-82635428D01*
X125839523Y-82587047D01*
X125815333Y-82562857D01*
X125766952Y-82538666D01*
X125718571Y-82538666D01*
X125670190Y-82562857D01*
X125646000Y-82587047D01*
X125621809Y-82635428D01*
X125621809Y-82756380D01*
X125646000Y-82828952D01*
X125621809Y-75834761D02*
X125621809Y-76125047D01*
X126129809Y-75979904D02*
X125621809Y-75979904D01*
X126129809Y-76294380D02*
X125621809Y-76294380D01*
X125621809Y-76415333D01*
X125646000Y-76487904D01*
X125694380Y-76536285D01*
X125742761Y-76560476D01*
X125839523Y-76584666D01*
X125912095Y-76584666D01*
X126008857Y-76560476D01*
X126057238Y-76536285D01*
X126105619Y-76487904D01*
X126129809Y-76415333D01*
X126129809Y-76294380D01*
X125621809Y-76899142D02*
X125621809Y-76995904D01*
X125646000Y-77044285D01*
X125694380Y-77092666D01*
X125791142Y-77116857D01*
X125960476Y-77116857D01*
X126057238Y-77092666D01*
X126105619Y-77044285D01*
X126129809Y-76995904D01*
X126129809Y-76899142D01*
X126105619Y-76850761D01*
X126057238Y-76802380D01*
X125960476Y-76778190D01*
X125791142Y-76778190D01*
X125694380Y-76802380D01*
X125646000Y-76850761D01*
X125621809Y-76899142D01*
X119946000Y-77712952D02*
X119921809Y-77664571D01*
X119921809Y-77592000D01*
X119946000Y-77519428D01*
X119994380Y-77471047D01*
X120042761Y-77446857D01*
X120139523Y-77422666D01*
X120212095Y-77422666D01*
X120308857Y-77446857D01*
X120357238Y-77471047D01*
X120405619Y-77519428D01*
X120429809Y-77592000D01*
X120429809Y-77640380D01*
X120405619Y-77712952D01*
X120381428Y-77737142D01*
X120212095Y-77737142D01*
X120212095Y-77640380D01*
X120429809Y-77954857D02*
X119921809Y-77954857D01*
X120429809Y-78245142D01*
X119921809Y-78245142D01*
X120429809Y-78487047D02*
X119921809Y-78487047D01*
X119921809Y-78608000D01*
X119946000Y-78680571D01*
X119994380Y-78728952D01*
X120042761Y-78753142D01*
X120139523Y-78777333D01*
X120212095Y-78777333D01*
X120308857Y-78753142D01*
X120357238Y-78728952D01*
X120405619Y-78680571D01*
X120429809Y-78608000D01*
X120429809Y-78487047D01*
M02*
